<svg width="147" height="28" viewBox="0 0 147 28" fill="none" xmlns="http://www.w3.org/2000/svg">
<path d="M99.4716 9.59034C99.7955 7.60986 98.9189 7.12324 97.3687 7.12324H95.4972C94.3109 7.12324 94.0152 7.2122 93.8211 8.34894L92.9946 13.1445H95.8353C96.6515 13.1445 97.1387 12.8802 97.4574 12.5244C97.6181 12.3452 97.7363 12.1412 97.8328 11.9279C97.9176 11.7474 97.9844 11.5617 98.0448 11.3877C98.0525 11.3694 98.0808 11.2974 98.0885 11.2778L98.861 11.2634L97.9626 16.4998H97.1798C97.4047 15.1236 97.0191 14.4016 95.6374 14.4016H92.78L91.8532 19.8001C91.6257 21.12 91.8854 21.1514 93.0679 21.1514H95.7325C97.0615 21.1514 97.7929 20.6478 98.2595 18.7916L99.0346 18.7864L98.3379 22.4085H88.6565L90.9188 9.23192C91.1309 8.01145 91.2067 7.4385 90.9882 7.11278C90.7838 6.81061 90.3121 6.71119 89.3519 6.54375C89.3044 6.5359 89.1424 6.5032 89.0923 6.49273L89.2208 5.86615H100.82L100.253 9.59034H99.4716Z" fill="#808080"/>
<path fill-rule="evenodd" clip-rule="evenodd" d="M93.8211 8.34894C93.9464 7.61515 94.114 7.31797 94.5362 7.19948C94.7681 7.13442 95.0767 7.12324 95.4972 7.12324H97.3687C97.6995 7.12324 97.9996 7.1454 98.2639 7.19948C98.6598 7.28051 98.9754 7.43321 99.1936 7.69046C99.3214 7.8412 99.4157 8.02785 99.4731 8.25701C99.5528 8.57496 99.5613 8.97477 99.4895 9.47411C99.484 9.51227 99.478 9.55101 99.4716 9.59034H100.253L100.82 5.86615H89.2208L89.0923 6.49273C89.1043 6.49524 89.1228 6.49903 89.1445 6.50345C89.1675 6.50811 89.1941 6.51348 89.2208 6.51878C89.2743 6.5294 89.3278 6.53977 89.3519 6.54375C89.7978 6.6215 90.1383 6.68458 90.3956 6.7601C90.6925 6.84723 90.8787 6.95091 90.9882 7.11278C91.0064 7.13989 91.0225 7.16872 91.0367 7.19948C91.1931 7.53837 91.1132 8.11304 90.9188 9.23192L88.6565 22.4085H98.3379L99.0346 18.7864L98.2595 18.7916C98.0252 19.7237 97.7241 20.3148 97.3141 20.6723C97.081 20.8755 96.8127 21.0032 96.5014 21.0752C96.2699 21.1287 96.0147 21.1514 95.7325 21.1514H93.0679C92.631 21.1514 92.3201 21.1471 92.1132 21.0752C91.76 20.9524 91.7098 20.6324 91.8532 19.8001L92.78 14.4016H95.6374C95.7058 14.4016 95.7717 14.4033 95.8353 14.4069C95.9841 14.4151 96.1197 14.4331 96.2429 14.4605C96.5262 14.5237 96.7433 14.6373 96.9014 14.8002C97.0345 14.9374 97.1259 15.1095 97.1798 15.3158C97.2545 15.6018 97.2573 15.9535 97.1996 16.3689C97.1936 16.4118 97.187 16.4555 97.1798 16.4998H97.9626L98.861 11.2634L98.0885 11.2778C98.0808 11.2975 98.0525 11.3694 98.0448 11.3877C97.9844 11.5617 97.9176 11.7474 97.8328 11.9279C97.7363 12.1412 97.6181 12.3452 97.4574 12.5244C97.3977 12.5911 97.332 12.6546 97.2594 12.7137C97.0218 12.9071 96.7096 13.0539 96.2857 13.1143C96.1478 13.134 95.9981 13.1445 95.8353 13.1445H92.9946L93.8211 8.34894ZM91.4141 14.4778H91.4119L92.5068 8.12454C92.5069 8.1242 92.5069 8.12386 92.507 8.12353C92.5522 7.85885 92.6166 7.52828 92.7526 7.19948H92.4161C92.4592 7.46029 92.4573 7.70602 92.4464 7.90865C92.4232 8.33837 92.3354 8.86735 92.2327 9.4589C92.2326 9.45933 92.2325 9.45976 92.2324 9.46019L90.2383 21.0752H90.5147C90.4752 20.9202 90.457 20.7729 90.4496 20.6445C90.4296 20.2957 90.4795 19.9208 90.5391 19.5746L91.4141 14.4778Z" fill="#808080"/>
<path d="M104.257 15.0698C104.532 15.2503 104.83 15.4335 105.126 15.6232C106.308 16.3949 107.487 17.3577 107.159 19.261C106.743 21.6941 104.598 22.6765 102.211 22.6765C101.477 22.6765 100.855 22.6045 100.352 22.5117C99.8726 22.424 99.3944 22.2919 99.1322 22.2173L99.5063 20.1806C100.225 20.7549 101.195 21.494 102.491 21.494C103.981 21.494 104.639 20.7287 104.783 19.9046C104.882 19.3303 104.645 18.8882 104.229 18.4931C104.019 18.2956 103.769 18.1099 103.493 17.9241C103.217 17.741 102.919 17.5592 102.623 17.3708C101.443 16.6147 100.247 15.716 100.544 13.9946C100.851 12.2064 102.311 10.6772 105.164 10.6772C105.78 10.6772 106.341 10.757 106.796 10.8485C107.157 10.9231 107.452 11.0029 107.657 11.0565C107.691 11.0683 107.801 11.0984 107.833 11.1076L107.504 13.075C107.333 12.9415 107.22 12.8447 107.074 12.7362C106.916 12.6158 106.724 12.4785 106.497 12.3476C106.046 12.0886 105.473 11.861 104.812 11.861C104.051 11.861 103.128 12.1501 102.955 13.1574C102.86 13.7133 103.1 14.1319 103.517 14.5165C103.726 14.7088 103.981 14.888 104.257 15.0698Z" fill="#808080"/>
<path fill-rule="evenodd" clip-rule="evenodd" d="M103.525 16.1845L103.524 16.1837C103.236 15.9942 102.907 15.7669 102.615 15.4988L102.612 15.496C102.317 15.2238 102.026 14.8791 101.832 14.4569C101.82 14.7885 101.922 15.0178 102.088 15.2336C102.341 15.5635 102.751 15.8692 103.341 16.2473C103.428 16.3025 103.523 16.3623 103.622 16.4244C103.822 16.5502 104.038 16.6856 104.23 16.8127L104.24 16.8191C104.538 17.0208 104.857 17.2532 105.143 17.523L105.146 17.5258C105.426 17.7908 105.691 18.1153 105.876 18.5012C105.853 18.196 105.749 17.9726 105.616 17.7811C105.372 17.4323 104.973 17.1161 104.401 16.7425C104.303 16.6796 104.192 16.6094 104.077 16.5367C103.891 16.4193 103.694 16.2952 103.525 16.1845ZM105.126 15.6232C106.308 16.3949 107.487 17.3577 107.159 19.261C106.899 20.7843 105.96 21.7389 104.709 22.2399C104.041 22.5077 103.283 22.6458 102.491 22.6719C102.398 22.675 102.304 22.6765 102.211 22.6765C101.809 22.6765 101.44 22.6549 101.106 22.6201C100.831 22.5914 100.579 22.5537 100.352 22.5117C99.8726 22.424 99.3944 22.2919 99.1322 22.2173L99.5063 20.1806C99.8476 20.4535 100.246 20.7635 100.709 21.0138C100.917 21.1264 101.138 21.2268 101.373 21.3064C101.635 21.395 101.914 21.4577 102.211 21.4824C102.302 21.49 102.396 21.494 102.491 21.494C103.2 21.494 103.72 21.3206 104.087 21.0501C104.491 20.7522 104.707 20.3365 104.783 19.9046C104.882 19.3303 104.645 18.8882 104.229 18.4931C104.019 18.2956 103.769 18.1099 103.493 17.9241C103.314 17.8054 103.126 17.6873 102.935 17.5675C102.832 17.5025 102.727 17.4371 102.623 17.3708C101.443 16.6147 100.247 15.716 100.544 13.9946C100.745 12.8212 101.443 11.7594 102.705 11.1679C103.286 10.8958 103.986 10.7233 104.812 10.6852C104.927 10.6799 105.045 10.6772 105.164 10.6772C105.516 10.6772 105.85 10.7032 106.157 10.7427C106.386 10.7722 106.601 10.8093 106.796 10.8485C107.125 10.9167 107.401 10.9891 107.602 11.042C107.621 11.0471 107.639 11.0519 107.657 11.0565C107.684 11.0658 107.758 11.0865 107.804 11.0993C107.816 11.1028 107.826 11.1056 107.833 11.1076L107.504 13.075C107.433 13.0199 107.372 12.971 107.315 12.925C107.234 12.8596 107.16 12.7999 107.074 12.7362C106.916 12.6158 106.724 12.4785 106.497 12.3476C106.431 12.3098 106.363 12.2727 106.292 12.2369C106.157 12.1685 106.013 12.1048 105.86 12.05C105.644 11.9724 105.412 11.9126 105.164 11.8825C105.05 11.8686 104.933 11.861 104.812 11.861C104.331 11.861 103.785 11.9767 103.404 12.3167C103.184 12.5142 103.019 12.7873 102.955 13.1574C102.86 13.7133 103.1 14.1319 103.517 14.5165C103.726 14.7088 103.981 14.888 104.257 15.0698C104.421 15.1772 104.592 15.2854 104.767 15.3954C104.886 15.4704 105.006 15.5463 105.126 15.6232Z" fill="#808080"/>
<path d="M110.76 10.9454L111.085 9.04205L113.986 6.76855L113.269 10.9454H116.411L116.224 12.0311H113.082L111.87 19.091C111.576 20.7967 111.569 21.494 113.36 21.494C113.638 21.494 113.996 21.4599 114.285 21.3932L114.109 22.4763C113.506 22.5849 112.977 22.6765 112.454 22.6765C110.144 22.6765 108.808 22.3011 109.298 19.4625L110.575 12.0311H108.702L108.888 10.9454H110.76Z" fill="#808080"/>
<path fill-rule="evenodd" clip-rule="evenodd" d="M108.888 10.9454H110.76L111.085 9.04205L113.986 6.76855L113.269 10.9454H116.411L116.224 12.0311H113.082L111.87 19.091C111.654 20.3464 111.593 21.0555 112.29 21.3424C112.34 21.3633 112.395 21.3819 112.454 21.3983C112.587 21.4355 112.742 21.4615 112.921 21.477C113.054 21.4884 113.2 21.494 113.36 21.494C113.53 21.494 113.73 21.4812 113.926 21.4561C114.05 21.4402 114.173 21.4192 114.285 21.3932L114.109 22.4763C113.848 22.5235 113.6 22.5674 113.36 22.6021C113.048 22.6472 112.75 22.6765 112.454 22.6765C112.32 22.6765 112.189 22.6752 112.062 22.6723C109.995 22.6247 108.837 22.1366 109.298 19.4625L110.575 12.0311H108.702L108.888 10.9454Z" fill="#808080"/>
<path d="M121.685 16.0025L121.926 14.799C122.198 13.2215 122.458 11.6164 121.026 11.6164C119.553 11.6164 119.186 12.8696 118.994 13.9265C118.989 13.9605 118.974 14.0613 118.968 14.0953L115.988 14.1057C116.576 12.3803 117.689 10.6772 121.143 10.6772C124.599 10.6772 124.827 12.5098 124.409 14.939L123.127 22.4083H120.62L120.848 21.0727C120.692 21.2323 120.591 21.3317 120.477 21.4377C120.279 21.6221 120.041 21.8223 119.764 22.0054C119.203 22.3743 118.477 22.6765 117.54 22.6765C115.644 22.6765 114.501 21.2847 114.756 19.8052C115.347 16.3688 120.076 16.0574 121.685 16.0025ZM117.573 19.4088C117.381 20.5207 117.796 21.2506 118.632 21.2506C119.987 21.2506 121.035 19.9883 121.318 18.3401L121.549 16.9888C120.51 17.0268 117.946 17.2321 117.573 19.4088ZM117.573 19.4088C117.381 20.5207 117.796 21.2506 118.632 21.2506C119.987 21.2506 121.035 19.9883 121.318 18.3401L121.549 16.9888C120.51 17.0268 117.946 17.2321 117.573 19.4088ZM121.685 16.0025L121.926 14.799C122.198 13.2215 122.458 11.6164 121.026 11.6164C119.553 11.6164 119.186 12.8696 118.994 13.9265C118.989 13.9605 118.974 14.0613 118.968 14.0953L115.988 14.1057C116.576 12.3803 117.689 10.6772 121.143 10.6772C124.599 10.6772 124.827 12.5098 124.409 14.939L123.127 22.4083H120.62L120.848 21.0727C120.692 21.2323 120.591 21.3317 120.477 21.4377C120.279 21.6221 120.041 21.8223 119.764 22.0054C119.203 22.3743 118.477 22.6765 117.54 22.6765C115.644 22.6765 114.501 21.2847 114.756 19.8052C115.347 16.3688 120.076 16.0574 121.685 16.0025Z" fill="#808080"/>
<path fill-rule="evenodd" clip-rule="evenodd" d="M121.549 16.9888C121.209 17.0012 120.706 17.0316 120.17 17.143C119.626 17.256 119.049 17.4523 118.572 17.7977C118.083 18.1531 117.701 18.6662 117.573 19.4088C117.403 20.3888 117.706 21.072 118.353 21.2204C118.44 21.2404 118.533 21.2506 118.632 21.2506C118.833 21.2506 119.027 21.2229 119.213 21.1704C119.213 21.1703 119.213 21.1702 119.214 21.1701C119.31 21.1428 119.405 21.1087 119.496 21.0683C119.607 21.0198 119.714 20.9621 119.817 20.896C119.849 20.8754 119.881 20.8539 119.912 20.8316C119.913 20.8311 119.914 20.8307 119.914 20.8302C120.044 20.7384 120.166 20.633 120.281 20.5156C120.707 20.0819 121.032 19.4834 121.218 18.7944C121.258 18.6469 121.291 18.4952 121.318 18.3401L121.549 16.9888ZM120.848 21.0727C120.848 21.0735 120.847 21.0742 120.846 21.075C120.757 21.1661 120.686 21.2376 120.62 21.302C120.571 21.3494 120.525 21.393 120.477 21.4377C120.279 21.6221 120.041 21.8223 119.764 22.0054C119.658 22.0747 119.547 22.1416 119.43 22.2046C119.384 22.2293 119.337 22.2534 119.289 22.2768C119.088 22.3753 118.869 22.4615 118.632 22.5284C118.57 22.546 118.506 22.5623 118.441 22.5772C118.165 22.6401 117.865 22.6765 117.54 22.6765C115.644 22.6765 114.501 21.2847 114.756 19.8052C115.061 18.0291 116.472 17.0878 117.986 16.5852C119.304 16.148 120.699 16.0429 121.513 16.009C121.574 16.0065 121.631 16.0043 121.685 16.0025L121.926 14.799C122.111 13.7255 122.29 12.6393 121.935 12.0547C121.783 11.8045 121.533 11.6461 121.143 11.6202C121.105 11.6177 121.066 11.6164 121.026 11.6164C120.42 11.6164 120.001 11.8283 119.705 12.1514C119.281 12.6139 119.107 13.3042 118.994 13.9265C118.992 13.9355 118.99 13.9491 118.988 13.9649C118.982 14.009 118.973 14.0702 118.968 14.0953L115.988 14.1057C116.144 13.6486 116.337 13.193 116.6 12.7703C117.093 11.9776 117.835 11.3003 119.048 10.9445C119.602 10.782 120.254 10.6866 121.026 10.6778C121.065 10.6774 121.104 10.6772 121.143 10.6772C121.721 10.6772 122.208 10.7284 122.618 10.8251C124.657 11.3066 124.757 12.916 124.409 14.939L123.127 22.4083H120.62L120.848 21.0727ZM117.655 13.8606C117.655 13.861 117.655 13.861 117.655 13.8606ZM116.341 20.9134C116.197 20.468 116.169 19.9946 116.212 19.5379C116.147 19.6925 116.1 19.8567 116.07 20.0312M116.341 20.9134C116.096 20.6506 116.022 20.3122 116.07 20.0312Z" fill="#808080"/>
<path d="M132.963 15.9476C133.203 14.5584 133.354 12.1043 131.147 12.1043C128.991 12.1043 128.296 14.8514 127.999 16.5781C127.67 18.4905 127.401 21.2506 129.58 21.2506C131.831 21.2506 132.567 18.2577 132.792 16.9483L132.963 15.9476ZM137.32 5.19751L134.363 22.4083H131.855L132.076 21.1238C131.876 21.2912 131.73 21.4102 131.572 21.5345C131.336 21.715 131.068 21.9021 130.769 22.0721C130.169 22.4122 129.437 22.6765 128.563 22.6765C125.385 22.6765 124.672 19.9556 125.196 16.8999C125.73 13.7944 127.491 10.6772 130.7 10.6772C132.604 10.6772 133.227 11.6321 133.558 12.4301C133.599 12.3228 133.643 12.0873 133.696 11.7747L133.917 10.4417C134.072 9.49335 134.232 8.57374 134.232 8.57374C134.512 6.93468 134.248 6.52132 133.031 6.42583C132.991 6.42321 132.829 6.40751 132.786 6.4049L132.905 5.8241L137.32 5.19751Z" fill="#808080"/>
<path fill-rule="evenodd" clip-rule="evenodd" d="M132.792 16.9483C132.686 17.5633 132.468 18.5497 132.033 19.423C131.866 19.7579 131.667 20.0762 131.43 20.3504C131.296 20.5064 131.149 20.6481 130.989 20.7706C130.986 20.7734 130.982 20.7762 130.978 20.7789C130.92 20.8232 130.86 20.8648 130.798 20.9037C130.784 20.9122 130.771 20.9206 130.757 20.9289C130.599 21.0233 130.43 21.0997 130.249 21.1544C130.249 21.1545 130.249 21.1543 130.249 21.1544C130.043 21.2165 129.819 21.2506 129.58 21.2506C129.496 21.2506 129.415 21.2465 129.338 21.2384C127.422 21.038 127.683 18.4164 127.999 16.5781C128.296 14.8514 128.991 12.1043 131.147 12.1043C131.31 12.1043 131.461 12.1178 131.599 12.1433C132.09 12.2336 132.43 12.4747 132.66 12.8033C133.026 13.3259 133.115 14.0696 133.09 14.7789C133.076 15.198 133.022 15.6051 132.963 15.9476L132.792 16.9483ZM131.572 21.5345C131.666 21.4606 131.756 21.3885 131.855 21.307C131.923 21.2515 131.995 21.1916 132.076 21.1238L131.855 22.4083H134.363L137.32 5.19751L132.905 5.8241L132.786 6.4049C132.809 6.4063 132.867 6.4115 132.922 6.41641C132.946 6.41863 132.97 6.42079 132.99 6.42252C133.008 6.42406 133.023 6.42525 133.031 6.42583C133.41 6.45556 133.697 6.51612 133.903 6.63491C134.049 6.71882 134.155 6.83178 134.225 6.98346C134.375 7.30664 134.363 7.80559 134.232 8.57374C134.232 8.57374 134.072 9.49335 133.917 10.4417L133.696 11.7747C133.687 11.8275 133.678 11.8781 133.67 11.9262C133.628 12.1632 133.592 12.3409 133.558 12.4301C133.456 12.185 133.327 11.9252 133.142 11.6828C133.141 11.6823 133.141 11.6817 133.141 11.6811C132.969 11.4572 132.75 11.2482 132.459 11.0795C132.311 10.9929 132.143 10.9169 131.954 10.855C131.612 10.7432 131.2 10.6772 130.7 10.6772C127.491 10.6772 125.73 13.7944 125.196 16.8999C124.672 19.9556 125.385 22.6765 128.563 22.6765C128.879 22.6765 129.176 22.642 129.455 22.5819C129.497 22.5729 129.539 22.5633 129.58 22.5531C129.928 22.467 130.248 22.3416 130.539 22.1952C130.545 22.1919 130.552 22.1885 130.559 22.1852C130.63 22.1487 130.701 22.1109 130.769 22.0721C131.068 21.9021 131.336 21.715 131.572 21.5345ZM126.577 20.0688C126.562 19.9994 126.548 19.9309 126.536 19.8634C126.327 18.6805 126.521 17.3031 126.685 16.3521M126.577 20.0688C126.34 19.3667 126.299 18.3576 126.51 17.1254C126.564 16.8096 126.632 16.4976 126.713 16.1931C126.703 16.2474 126.694 16.3005 126.685 16.3521M134.4 13.9593C134.408 14.0441 134.414 14.1288 134.418 14.2131L134.512 13.6659L134.4 13.9593ZM135.636 7.12608L135.697 6.77466L135.569 6.79278C135.599 6.90517 135.621 7.01683 135.636 7.12608Z" fill="#808080"/>
<path d="M142.639 10.6772C146.164 10.6772 147.459 13.1626 146.851 16.6971C146.164 20.6986 144.179 22.6765 140.598 22.6765C136.685 22.6765 135.791 20.1152 136.381 16.6801C137.083 12.5818 139.104 10.6772 142.639 10.6772ZM144.107 16.6801C144.498 14.3988 144.747 11.6164 142.497 11.6164C140.175 11.6164 139.498 14.5322 139.126 16.6971C138.772 18.7626 138.441 21.7386 140.739 21.7386C143.038 21.7386 143.684 19.138 144.107 16.6801ZM144.107 16.6801C144.498 14.3988 144.747 11.6164 142.497 11.6164C140.175 11.6164 139.498 14.5322 139.126 16.6971C138.772 18.7626 138.441 21.7386 140.739 21.7386C143.038 21.7386 143.684 19.138 144.107 16.6801ZM142.639 10.6772C146.164 10.6772 147.459 13.1626 146.851 16.6971C146.164 20.6986 144.179 22.6765 140.598 22.6765C136.685 22.6765 135.791 20.1152 136.381 16.6801C137.083 12.5818 139.104 10.6772 142.639 10.6772Z" fill="#808080"/>
<path fill-rule="evenodd" clip-rule="evenodd" d="M145.537 16.4713L145.537 16.4711C145.626 15.957 145.665 15.4928 145.663 15.0773C145.612 15.7239 145.515 16.356 145.421 16.9052L145.421 16.9062C145.387 17.1043 145.351 17.3088 145.311 17.5173C145.397 17.1948 145.473 16.8466 145.537 16.4713ZM143.101 22.2638C142.411 22.5254 141.625 22.6623 140.739 22.6754C140.693 22.6761 140.645 22.6765 140.598 22.6765C139.916 22.6765 139.326 22.5987 138.82 22.4521C136.419 21.7574 135.894 19.5167 136.381 16.6801C136.903 13.6296 138.157 11.7944 140.222 11.0555C140.893 10.8151 141.651 10.6907 142.497 10.6782C142.544 10.6775 142.591 10.6772 142.639 10.6772C143.353 10.6772 143.976 10.7793 144.51 10.9715C146.611 11.7277 147.336 13.8789 146.851 16.6971C146.345 19.6444 145.135 21.4938 143.101 22.2638ZM137.931 15.8142C137.887 16.0439 137.848 16.2644 137.812 16.4714ZM139.468 21.241C138.608 20.3071 138.86 18.2461 139.126 16.6971C139.392 15.1487 139.814 13.2163 140.882 12.2412C141.308 11.8529 141.835 11.6164 142.497 11.6164C142.545 11.6164 142.593 11.6177 142.639 11.6203C143.164 11.6494 143.542 11.841 143.808 12.1469C144.604 13.0636 144.394 15.0066 144.107 16.6801C143.813 18.3871 143.412 20.163 142.424 21.0887C141.99 21.4959 141.442 21.7386 140.739 21.7386C140.691 21.7386 140.644 21.7373 140.598 21.7347C140.097 21.7064 139.73 21.5263 139.468 21.241ZM137.931 15.8142C137.842 16.1489 137.762 16.5118 137.695 16.9052L137.695 16.9058C137.58 17.5721 137.536 18.1521 137.552 18.6498C137.587 17.8586 137.707 17.0845 137.812 16.4716" fill="#808080"/>
<path d="M38.3023 13.0451H39.8473C41.8962 13.0451 43.5646 12.3701 43.9733 9.98931C44.3409 7.8414 43.2882 7.12324 41.1211 7.12324C39.6866 7.12324 39.3062 7.19519 39.1082 8.34894L38.3023 13.0451ZM46.7381 9.88728C46.3384 12.221 44.5723 13.1837 43.3255 13.601C44.9078 13.9699 46.6906 14.9183 46.161 17.995C45.7818 20.203 44.3576 21.3084 42.7869 21.8591C42.0042 22.1338 41.1828 22.2725 40.4347 22.3392C39.6879 22.4085 39.0118 22.4085 38.5182 22.4085H33.9462L36.2097 9.23192C36.4193 8.01145 36.5015 7.43719 36.2856 7.11278C36.0735 6.79229 35.4745 6.65886 34.4038 6.47704L34.5092 5.86615H41.6802C44.4283 5.86615 47.3166 6.52413 46.7381 9.88728ZM37.0709 20.2148C36.9115 21.137 37.7894 21.1514 39.1494 21.1514C41.7625 21.1514 43.0736 19.9741 43.4965 17.511C43.9026 15.1459 42.3242 14.3035 40.2239 14.3035H38.0864L37.0709 20.2148Z" fill="#808080"/>
<path d="M64.7371 16.0211C65.0739 14.0511 65.3374 12.4474 63.8065 12.4474C62.2628 12.4474 60.516 14.6816 60.2204 16.407L59.1908 22.4086H56.6818L58.097 14.1662C58.3772 12.5428 58.0905 12.1321 56.755 12.0628C56.7191 12.0615 56.5725 12.0432 56.5352 12.0432L56.6419 11.465L61.2063 10.6657L60.6895 13.6809C61.4646 12.5206 63.0405 10.6775 65.196 10.6775C67.4313 10.6775 67.885 12.2943 67.5598 14.1819L66.1485 22.4086H63.6394L64.7371 16.0211Z" fill="#808080"/>
<path fill-rule="evenodd" clip-rule="evenodd" d="M66.3091 13.4562C66.3505 12.9112 66.2757 12.5569 66.1699 12.3645C66.1165 12.2675 66.0505 12.2 65.9439 12.1451C65.9193 12.1324 65.8901 12.1193 65.8557 12.1064C66.1317 12.5077 66.2465 12.9521 66.2946 13.3251C66.3002 13.3683 66.305 13.412 66.3091 13.4562ZM63.7402 12.4487C63.2002 12.4708 62.6384 12.7596 62.1249 13.1988C61.9098 13.3828 61.7032 13.5932 61.5101 13.8215C61.4373 13.9077 61.3664 13.9964 61.2977 14.0872C61.2717 14.1216 61.2459 14.1563 61.2206 14.1912C60.716 14.8867 60.3431 15.6907 60.2204 16.407L59.1908 22.4086H56.6818L58.097 14.1662C58.2314 13.3875 58.2354 12.8878 58.0557 12.571C57.9812 12.4396 57.8751 12.3396 57.7335 12.2643C57.505 12.1426 57.1842 12.085 56.755 12.0628C56.7527 12.0627 56.7498 12.0625 56.7465 12.0623C56.7279 12.061 56.6956 12.0577 56.6615 12.0541C56.6108 12.0489 56.556 12.0432 56.5352 12.0432L56.6419 11.465L61.2063 10.6657L60.6895 13.6809C61.067 13.1159 61.6343 12.3889 62.3661 11.7917C62.6612 11.5508 62.983 11.3311 63.3299 11.1516C63.8892 10.8623 64.5135 10.6775 65.196 10.6775C67.4313 10.6775 67.885 12.2943 67.5598 14.1819L66.1485 22.4086H63.6394L64.7371 16.0211C65.0739 14.0511 65.3374 12.4474 63.8065 12.4474C63.7845 12.4474 63.7623 12.4478 63.7402 12.4487ZM59.9498 13.6847L59.5196 13.5132C59.503 13.7981 59.4625 14.0939 59.411 14.3923C59.4109 14.3926 59.411 14.3921 59.411 14.3923L59.3439 14.7828C59.5136 14.403 59.7193 14.0327 59.9498 13.6847ZM59.4951 12.7571L59.5725 12.3054L59.3995 12.3357C59.4448 12.4779 59.4753 12.6196 59.4951 12.7571Z" fill="#808080"/>
<path d="M75.0973 14.1306C75.2837 13.0043 75.2631 11.6164 73.8659 11.6164C72.2862 11.6164 71.6191 13.364 71.2142 15.7213C70.596 19.3264 71.8852 21.2506 74.015 21.2506C74.722 21.2506 75.6693 21.1172 76.2785 20.9367C76.2991 20.9302 76.3737 20.904 76.3942 20.8975L76.2014 22.0931C75.7066 22.2644 75.3595 22.3965 74.8518 22.5025C74.3351 22.6111 73.6834 22.6765 72.6859 22.6765C69.2836 22.6765 67.6949 20.2199 68.3324 16.5101C68.907 13.1482 70.6846 10.6772 74.1525 10.6772C76.7554 10.6772 78.3056 11.9814 78.0703 13.9161C78.0652 13.9605 78.0498 14.0796 78.0421 14.1254L75.0973 14.1306Z" fill="#808080"/>
<path fill-rule="evenodd" clip-rule="evenodd" d="M74.3326 21.2427C74.223 21.2479 74.1165 21.2506 74.015 21.2506C71.8852 21.2506 70.5959 19.3264 71.2142 15.7213C71.4628 14.2742 71.8101 13.0569 72.4068 12.3326C72.782 11.877 73.2559 11.6164 73.8659 11.6164C73.9688 11.6164 74.0642 11.6239 74.1525 11.6383C74.4841 11.6923 74.7173 11.8428 74.8767 12.0551C75.028 12.2567 75.1129 12.5139 75.1524 12.7972C75.2108 13.2167 75.1696 13.6934 75.0973 14.1306L78.0421 14.1254C78.0498 14.0796 78.0652 13.9605 78.0703 13.9161C78.1101 13.5889 78.0988 13.2798 78.04 12.9919C78.0262 12.9241 78.0097 12.8575 77.9906 12.7921C77.7024 11.8037 76.8224 11.0948 75.5107 10.8124C75.0989 10.7238 74.6445 10.6772 74.1525 10.6772C74.0557 10.6772 73.9601 10.6791 73.8659 10.6829C73.0063 10.7178 72.2555 10.9102 71.6056 11.234C69.7757 12.1456 68.7445 14.0986 68.3324 16.5101C67.6949 20.2199 69.2836 22.6765 72.6859 22.6765C73.4527 22.6765 74.0151 22.6378 74.4689 22.5706C74.6055 22.5504 74.7323 22.5276 74.8518 22.5025C75.2929 22.4104 75.6127 22.2986 76.0136 22.1585C76.0741 22.1374 76.1365 22.1155 76.2014 22.0931L76.3942 20.8975C76.3839 20.9007 76.3602 20.9089 76.3364 20.9171C76.3126 20.9252 76.2888 20.9334 76.2785 20.9367C76.1461 20.9759 75.9976 21.013 75.8391 21.0469C75.577 21.103 75.2874 21.1505 74.9972 21.1856C74.8591 21.2022 74.7209 21.2161 74.5855 21.2266C74.5849 21.2267 74.5843 21.2267 74.5837 21.2268C74.4987 21.2334 74.4148 21.2387 74.3326 21.2427ZM70.5649 20.7323C70.5128 20.6506 70.4629 20.5662 70.4152 20.4793C69.7374 19.2441 69.5787 17.6217 69.8547 15.7784C69.7735 16.0803 69.704 16.3992 69.6467 16.7347L69.6465 16.7359C69.3627 18.3873 69.6149 19.5353 70.0921 20.2279C70.2193 20.4124 70.3751 20.583 70.5649 20.7323ZM76.4903 12.76C76.4915 12.7716 76.4926 12.7832 76.4937 12.7948L76.5188 12.7947C76.5095 12.783 76.5 12.7714 76.4903 12.76Z" fill="#808080"/>
<path d="M83.9803 10.6772C87.5048 10.6772 88.8004 13.1626 88.1937 16.6971C87.5048 20.6986 85.5202 22.6765 81.9392 22.6765C78.0278 22.6765 77.1332 20.1152 77.7219 16.6801C78.4263 12.5818 80.4481 10.6772 83.9803 10.6772ZM85.4495 16.6801C85.8402 14.3988 86.0896 11.6164 83.8376 11.6164C81.5176 11.6164 80.8389 14.5322 80.4674 16.6971C80.1127 18.7626 79.7823 21.7386 82.0805 21.7386C84.3788 21.7386 85.0266 19.138 85.4495 16.6801ZM85.4495 16.6801C85.8402 14.3988 86.0896 11.6164 83.8376 11.6164C81.5176 11.6164 80.8389 14.5322 80.4674 16.6971C80.1127 18.7626 79.7823 21.7386 82.0805 21.7386C84.3788 21.7386 85.0266 19.138 85.4495 16.6801ZM83.9803 10.6772C87.5048 10.6772 88.8004 13.1626 88.1937 16.6971C87.5048 20.6986 85.5202 22.6765 81.9392 22.6765C78.0278 22.6765 77.1332 20.1152 77.7219 16.6801C78.4263 12.5818 80.4481 10.6772 83.9803 10.6772Z" fill="#808080"/>
<path fill-rule="evenodd" clip-rule="evenodd" d="M86.7637 16.9052L86.7635 16.9062C86.7296 17.103 86.6936 17.306 86.6544 17.513C86.7399 17.1917 86.8153 16.8451 86.8796 16.4715M84.443 22.2636C86.4761 21.4936 87.6863 19.6442 88.1937 16.6971C88.6774 13.8794 87.9521 11.7284 85.8524 10.9719C85.3182 10.7794 84.6951 10.6772 83.9803 10.6772C83.9325 10.6772 83.8849 10.6775 83.8376 10.6782C82.9916 10.6907 82.2341 10.8153 81.5624 11.0561C79.4997 11.7955 78.246 13.6304 77.7219 16.6801C77.2358 19.5163 77.7609 21.7568 80.1604 22.4519C80.667 22.5986 81.2572 22.6765 81.9392 22.6765C81.9866 22.6765 82.0337 22.6761 82.0805 22.6754C82.9662 22.6623 83.7521 22.5253 84.443 22.2636ZM79.1533 16.4716C79.0484 17.0823 78.929 17.8531 78.8931 18.6414ZM79.2708 15.8234C79.227 16.0498 79.1884 16.2672 79.1533 16.4714ZM83.7655 21.0885C84.7536 20.1628 85.1558 18.3871 85.4495 16.6801C85.7361 15.0068 85.9466 13.064 85.1499 12.1472C84.8839 11.8411 84.5056 11.6494 83.9803 11.6203C83.9339 11.6177 83.8864 11.6164 83.8376 11.6164C83.1767 11.6164 82.649 11.853 82.2236 12.2415C81.1558 13.2167 80.7331 15.1489 80.4674 16.6971C80.2014 18.246 79.9491 20.3069 80.8087 21.2409C81.0713 21.5262 81.4377 21.7064 81.9392 21.7347C81.9851 21.7373 82.0323 21.7386 82.0805 21.7386C82.7827 21.7386 83.3308 21.4958 83.7655 21.0885ZM78.8931 18.6414C78.8784 18.1456 78.9224 17.5685 79.0359 16.906ZM79.0361 16.9053C79.1031 16.5155 79.1817 16.1556 79.2708 15.8234ZM86.8797 16.4709C86.9675 15.9595 87.0063 15.4974 87.0044 15.0835C86.9542 15.7279 86.8574 16.3577 86.7637 16.9052" fill="#808080"/>
<path d="M0.670952 0.993408H26.4592V27.2433H0.670952V0.993408Z" fill="#808080"/>
<path d="M26.459 14.8266L15.5258 5.46185C15.5245 5.46185 15.5232 5.46316 15.5219 5.46447V22.8702L26.459 22.8728V14.8266Z" fill="#A8A8A8"/>
<path d="M15.5259 7.96423L15.5246 5.46051C14.7637 6.32779 12.8485 7.80988 10.4911 8.15522V10.0925L8.64663 10.9101V12.5792L0.670952 15.7135V22.8728H17.4154V7.15975L15.5259 7.96423Z" fill="white"/>
<path d="M10.495 11.866L8.97825 12.4494C8.80473 12.5175 8.66462 12.715 8.66462 12.8903L8.66591 14.0859C8.65305 14.2756 8.53223 14.4404 8.34457 14.4966L0.670952 17.5066V19.3353L8.36899 16.2861C8.54123 16.2181 8.68133 16.0206 8.68133 15.844V14.6588C8.6929 14.4705 8.81244 14.3122 8.97825 14.2494L10.495 13.6634V11.866Z" fill="#808080"/>
<path d="M10.495 15.3801L8.97825 15.9635C8.80473 16.0316 8.66462 16.2291 8.66462 16.4057L8.66591 17.6013C8.65305 17.7884 8.53223 17.9545 8.34457 18.012L0.670952 21.0717V22.8691L8.36899 19.8002C8.54123 19.7322 8.68133 19.5334 8.68133 19.3581V18.1729C8.6929 17.9859 8.81244 17.8263 8.97825 17.7635L10.495 17.1775V15.3801Z" fill="#808080"/>
<path d="M0.670952 22.8692H26.4592V27.2435H0.670952V22.8692Z" fill="#808080"/>
<path d="M8.28669 23.6957L7.88309 23.7415L7.71599 24.6336C7.58231 24.576 7.51804 24.5603 7.42164 24.5603C6.95634 24.5603 6.55402 25.115 6.53988 25.7703C6.53474 26.0647 6.64528 26.2452 6.8458 26.2452C6.96148 26.2452 7.13372 26.1706 7.27254 26.0581C7.34966 25.9953 7.41521 25.9273 7.46534 25.8528C7.48719 25.8253 7.51419 25.7821 7.54889 25.7206L7.4692 26.1876H7.84453L8.28669 23.6957ZM7.662 24.9423L7.62858 25.1385C7.60288 25.3047 7.46791 25.527 7.30467 25.6866C7.20184 25.7847 7.09387 25.8528 7.03732 25.8528C6.98076 25.8528 6.94863 25.7913 6.9512 25.6905C6.95377 25.5244 7.03475 25.2667 7.11958 25.1176C7.21341 24.9619 7.35223 24.8573 7.46149 24.8573C7.53604 24.8573 7.60031 24.8834 7.662 24.9423Z" fill="white"/>
<path d="M9.72767 24.8954C9.73281 24.6783 9.58628 24.5658 9.29579 24.5658C8.78036 24.5658 8.41403 25.0197 8.3986 25.6725C8.39089 26.0453 8.53357 26.231 8.8292 26.231C8.96288 26.231 9.11841 26.1918 9.2508 26.1198C9.29836 26.0963 9.35491 26.0584 9.42689 26.0073C9.5143 25.9445 9.55415 25.9171 9.64926 25.8386L9.50145 25.5979C9.2855 25.7614 9.23152 25.798 9.14154 25.836C9.07342 25.8621 8.99373 25.8791 8.95002 25.8791C8.89733 25.8791 8.83177 25.8464 8.80221 25.798C8.78293 25.7679 8.77393 25.7339 8.76236 25.6555L9.44232 25.2931C9.63769 25.1885 9.72381 25.0707 9.72767 24.8954ZM9.34335 24.9857C9.34206 25.0171 9.3382 25.0367 9.32021 25.0799L8.79193 25.3794C8.86391 25.1558 8.90632 25.0642 8.9873 24.97C9.058 24.8837 9.1364 24.8405 9.21352 24.8405C9.29964 24.8405 9.34463 24.8915 9.34335 24.9857Z" fill="white"/>
<path d="M11.0797 24.6587C10.9319 24.5972 10.793 24.5658 10.6298 24.5658C10.2609 24.5658 10.0437 24.7359 10.0372 25.0263C10.0347 25.1204 10.0642 25.2028 10.1182 25.2774C10.1542 25.3206 10.1966 25.369 10.2455 25.4161C10.2622 25.4291 10.3239 25.4841 10.428 25.5822C10.509 25.6528 10.5372 25.7025 10.536 25.764C10.5347 25.8464 10.4601 25.9001 10.3367 25.9001C10.2403 25.9001 10.1414 25.8765 9.97683 25.815L9.85857 26.1434C9.9884 26.18 10.0385 26.1918 10.1645 26.2114C10.2506 26.2245 10.3496 26.231 10.4139 26.231C10.7352 26.231 10.9524 26.0453 10.9601 25.7575C10.9627 25.5914 10.8959 25.4867 10.6696 25.2905C10.4935 25.1414 10.4743 25.1204 10.446 25.0707C10.4318 25.0498 10.4267 25.0263 10.4267 25.0027C10.428 24.9281 10.5025 24.8837 10.6324 24.8837C10.739 24.8837 10.8085 24.9046 10.9601 24.9857L11.0797 24.6587Z" fill="white"/>
<path d="M13.0257 23.6957L12.6208 23.7415L12.455 24.6336C12.32 24.576 12.257 24.5603 12.1606 24.5603C11.6953 24.5603 11.293 25.115 11.2776 25.7703C11.2712 26.0647 11.3843 26.2452 11.5835 26.2452C11.7005 26.2452 11.8701 26.1706 12.0103 26.0581C12.0887 25.9953 12.1529 25.9273 12.2043 25.8528C12.2249 25.8253 12.2532 25.7821 12.2879 25.7206L12.2069 26.1876H12.5822L13.0257 23.6957ZM12.401 24.9423L12.3676 25.1385C12.3393 25.3047 12.2043 25.527 12.0411 25.6866C11.9396 25.7847 11.8316 25.8528 11.775 25.8528C11.7198 25.8528 11.6876 25.7913 11.6889 25.6905C11.6941 25.5244 11.7725 25.2667 11.8586 25.1176C11.9524 24.9619 12.0899 24.8573 12.2005 24.8573C12.2738 24.8573 12.3393 24.8834 12.401 24.9423Z" fill="white"/>
<path d="M14.4656 24.8954C14.4708 24.6783 14.3229 24.5658 14.0337 24.5658C13.5183 24.5658 13.152 25.0197 13.1378 25.6725C13.1301 26.0453 13.2715 26.231 13.5671 26.231C13.7008 26.231 13.8576 26.1918 13.9887 26.1198C14.0363 26.0963 14.0941 26.0584 14.1648 26.0073C14.2522 25.9445 14.2934 25.9171 14.3872 25.8386L14.2407 25.5979C14.0234 25.7614 13.9695 25.798 13.8795 25.836C13.8126 25.8621 13.7317 25.8791 13.688 25.8791C13.6353 25.8791 13.5697 25.8464 13.5402 25.798C13.5209 25.7679 13.5119 25.7339 13.5003 25.6555L14.1803 25.2931C14.3756 25.1885 14.4618 25.0707 14.4656 24.8954ZM14.0813 24.9857C14.08 25.0171 14.0761 25.0367 14.0594 25.0799L13.5312 25.3794C13.6019 25.1558 13.643 25.0642 13.7252 24.97C13.7985 24.8837 13.8743 24.8405 13.9515 24.8405C14.0376 24.8405 14.0839 24.8915 14.0813 24.9857Z" fill="white"/>
<path d="M16.6866 24.5487H16.4976L15.6917 24.847L15.7817 25.1661L16.2084 24.9961L15.9976 26.1878H16.3935L16.6866 24.5487Z" fill="white"/>
<path d="M18.6223 24.3367C18.6287 24.075 18.4192 23.9167 18.0657 23.9167C17.6236 23.9167 17.3099 24.126 17.3022 24.4269C17.2997 24.563 17.3626 24.7147 17.4668 24.8272L17.6069 24.975L17.3228 25.166C17.1416 25.2863 16.995 25.531 16.9899 25.7272C16.9835 26.0529 17.202 26.2243 17.6184 26.2243C18.1506 26.2243 18.522 25.9809 18.5297 25.6225C18.5336 25.4669 18.4475 25.2903 18.3048 25.166L18.0889 24.975L18.3022 24.8272C18.4616 24.7147 18.5259 24.6441 18.5786 24.525C18.6056 24.4648 18.621 24.3968 18.6223 24.3367ZM18.2033 24.4178C18.202 24.5041 18.157 24.5865 18.0863 24.6336L17.8935 24.7631L17.7752 24.6127C17.7393 24.5656 17.7161 24.5015 17.7187 24.4413C17.7213 24.3092 17.8434 24.2111 17.9989 24.2111C18.1236 24.2111 18.2071 24.2961 18.2033 24.4178ZM18.1081 25.5859C18.1043 25.7703 17.9179 25.9339 17.711 25.9339C17.5259 25.9339 17.4012 25.8253 17.4051 25.6657C17.4076 25.5362 17.504 25.3818 17.6326 25.2929L17.8215 25.166L18.0207 25.3583C18.0786 25.4158 18.1107 25.493 18.1081 25.5859Z" fill="white"/>
<path d="M20.0785 24.422H19.0733L18.8715 25.5731H19.081C19.1774 25.5731 19.3124 25.6098 19.3818 25.6529C19.4487 25.6974 19.4859 25.789 19.4834 25.9041C19.4756 26.1919 19.2674 26.4286 19.0219 26.4286C18.9255 26.4286 18.833 26.4051 18.671 26.3371L18.5515 26.6549C18.7327 26.7269 18.8445 26.7504 18.9885 26.7504C19.4731 26.7504 19.8895 26.341 19.8998 25.8544C19.905 25.6163 19.8124 25.4306 19.644 25.3494C19.5541 25.305 19.4898 25.2906 19.3214 25.2749L19.4114 24.7634H20.0181L20.0785 24.422Z" fill="white"/>
<path d="M21.5156 24.422H20.5105L20.3087 25.5731H20.5195C20.6146 25.5731 20.7508 25.6098 20.8202 25.6529C20.8858 25.6974 20.9231 25.789 20.9205 25.9041C20.9141 26.1919 20.7058 26.4286 20.4603 26.4286C20.3627 26.4286 20.2701 26.4051 20.1094 26.3371L19.9886 26.6549C20.1699 26.7269 20.2817 26.7504 20.4256 26.7504C20.9115 26.7504 21.3267 26.341 21.337 25.8544C21.3421 25.6163 21.2496 25.4306 21.0825 25.3494C20.9912 25.305 20.9269 25.2906 20.7585 25.2749L20.8485 24.7634H21.4552L21.5156 24.422Z" fill="white"/>
<path fill-rule="evenodd" clip-rule="evenodd" d="M53.1589 16.9888C52.8191 17.0012 52.316 17.0316 51.7798 17.143C51.2362 17.256 50.6585 17.4523 50.1824 17.7977C49.6927 18.1531 49.3105 18.6662 49.1833 19.4088C49.0134 20.3888 49.3157 21.072 49.9627 21.2204C50.0498 21.2404 50.1431 21.2506 50.2424 21.2506C50.4431 21.2506 50.637 21.2229 50.8228 21.1704C50.8231 21.1703 50.8234 21.1702 50.8237 21.1701C50.9202 21.1428 51.0145 21.1087 51.1064 21.0683C51.2168 21.0198 51.3237 20.9621 51.4268 20.896C51.4589 20.8754 51.4908 20.8539 51.5222 20.8316C51.5229 20.8311 51.5235 20.8307 51.5242 20.8302C51.6535 20.7384 51.7761 20.633 51.8913 20.5156C52.317 20.0819 52.642 19.4834 52.8278 18.7944C52.8676 18.6469 52.9009 18.4952 52.9276 18.3401L53.1589 16.9888ZM52.4584 21.0727C52.4577 21.0735 52.4569 21.0742 52.4562 21.075C52.3666 21.1661 52.2955 21.2376 52.2296 21.302C52.181 21.3494 52.1352 21.393 52.0869 21.4377C51.889 21.6221 51.6512 21.8223 51.3735 22.0054C51.2683 22.0747 51.1573 22.1416 51.0401 22.2046C50.9942 22.2293 50.9472 22.2534 50.8994 22.2768C50.6979 22.3753 50.4794 22.4615 50.2424 22.5284C50.1799 22.546 50.1162 22.5623 50.0511 22.5772C49.7748 22.6401 49.475 22.6765 49.1499 22.6765C47.254 22.6765 46.1113 21.2847 46.3658 19.8052C46.6714 18.0291 48.0822 17.0878 49.5964 16.5852C50.9137 16.148 52.3092 16.0429 53.1231 16.009C53.1838 16.0065 53.2412 16.0043 53.2952 16.0025L53.5355 14.799C53.721 13.7255 53.9004 12.6393 53.545 12.0547C53.3928 11.8045 53.1426 11.6461 52.7527 11.6202C52.7151 11.6177 52.6761 11.6164 52.6358 11.6164C52.03 11.6164 51.6114 11.8283 51.3151 12.1514C50.8908 12.6139 50.7171 13.3042 50.6036 13.9265C50.6023 13.9355 50.6003 13.9491 50.598 13.9649C50.5916 14.009 50.5826 14.0702 50.5779 14.0953L47.5984 14.1057C47.7541 13.6486 47.9466 13.193 48.2098 12.7703C48.7033 11.9776 49.4452 11.3003 50.6581 10.9445C51.212 10.782 51.8642 10.6866 52.6358 10.6778C52.6745 10.6774 52.7134 10.6772 52.7527 10.6772C53.3306 10.6772 53.8182 10.7284 54.2276 10.8251C56.2671 11.3066 56.3668 12.916 56.0188 14.939L54.7373 22.4083H52.2296L52.4584 21.0727ZM49.2654 13.8606C49.2654 13.861 49.2654 13.861 49.2654 13.8606ZM47.9513 20.9134C47.8073 20.468 47.779 19.9946 47.8217 19.5379C47.7573 19.6925 47.7098 19.8567 47.6798 20.0312M47.9513 20.9134C47.7059 20.6506 47.6315 20.3122 47.6798 20.0312Z" fill="#808080"/>
<path d="M47.3162 19.2625H48.139V21.1606H47.3162V19.2625Z" fill="#808080"/>
</svg>
