<svg width="75" height="31" viewBox="0 0 75 31" fill="none" xmlns="http://www.w3.org/2000/svg">
<path d="M17.4758 0.681502C17.3991 0.532678 17.2016 0.503662 16.8721 0.503662H7.10399C5.94802 0.503662 4.94463 0.645934 4.15839 1.0091C3.42654 1.31782 2.77431 1.7886 2.25081 2.38596C1.76348 2.96931 1.41524 3.65587 1.23244 4.39369C1.03075 5.15979 0.930056 5.94898 0.932921 6.74118V24.1022C0.932921 24.3961 1.00406 24.5917 1.13884 24.6834C1.27363 24.7751 1.4758 24.8285 1.73414 24.8285H2.84892C3.58649 24.7798 5.16365 24.3961 5.16365 22.1384V14.1291H15.587C15.9043 14.1291 16.0812 14.0682 16.1654 13.9175C16.2572 13.7361 16.2995 13.5336 16.288 13.3306V11.3575C16.288 11.0234 16.2478 10.8175 16.1654 10.7192C16.0831 10.6209 15.9043 10.5526 15.587 10.5526H5.16365V6.49969C5.16365 5.76119 5.35085 5.18929 5.72525 4.80179C6.06596 4.42738 6.69214 4.22708 7.57854 4.22708H16.8787C17.1875 4.22708 17.3813 4.18122 17.4702 4.05486C17.576 3.96126 17.6218 3.73755 17.6218 3.43054V1.27774C17.6218 1.00817 17.576 0.799439 17.4824 0.680567" fill="#808080"/>
<path d="M23.2398 29.7911C23.2398 30.216 23.1265 30.2722 22.7006 30.2722H20.4608C20.092 30.2722 19.9216 30.187 19.9216 29.7911V11.0767C19.9216 10.7369 20.0068 10.5656 20.3756 10.3962C22.2476 9.57344 24.4875 9.31885 26.3585 9.31885C31.2931 9.31885 33.2494 12.7212 33.2494 17.0596C33.2494 21.2847 31.0966 24.8022 26.6141 24.8022C25.4769 24.8082 24.3434 24.6746 23.2388 24.4044L23.2398 29.7911ZM25.8774 12.1521C25.1118 12.1521 23.9202 12.3225 23.2398 12.549V21.5674C24.1436 21.8259 25.0786 21.9594 26.0188 21.9642C28.2315 21.9642 29.8189 20.7166 29.8189 17.0296C29.8189 13.4279 28.3157 12.1521 25.8774 12.1521Z" fill="#808080"/>
<path d="M47.5262 23.8362C45.8536 24.601 43.5566 24.8284 41.7417 24.8284C36.751 24.8284 35.39 22.6756 35.39 20.0922C35.39 17.4546 37.0627 15.0163 41.5676 15.0163H44.7435V14.5343C44.7435 13.0872 44.2624 12.0379 41.8232 12.0379C40.5465 12.0379 38.8177 12.3187 37.8817 12.6061C37.4839 12.7193 37.3144 12.6623 37.2265 12.3253L36.8361 10.7023C36.751 10.3896 36.8071 10.2193 37.0907 10.107C38.6819 9.51073 40.7206 9.28516 42.3651 9.28516C46.2785 9.28516 48.0654 11.0991 48.0654 14.3892V22.8965C48.0654 23.3495 47.924 23.6331 47.5262 23.8325M44.7182 17.537H41.9963C40.7486 17.537 38.7634 17.7064 38.7634 19.9706C38.7634 21.587 39.954 22.1543 41.7689 22.1543C42.308 22.1543 43.7261 22.0681 44.7182 21.6994V17.537Z" fill="#808080"/>
<path d="M58.1807 26.9262C57.3009 29.5349 55.8267 30.4999 53.4445 30.4999C52.6008 30.5049 51.7606 30.3902 50.9492 30.1592C50.5523 30.074 50.4671 29.9608 50.5523 29.62L50.9492 27.8903C51.0343 27.5215 51.1757 27.5215 51.5164 27.5786C52.1407 27.72 52.4243 27.778 52.9063 27.778C54.2392 27.778 54.9478 27.3521 55.4017 25.9912L55.997 24.2053H55.3166C54.6361 24.2053 54.2392 24.1201 53.8994 23.0418L49.6453 10.0258C49.5601 9.74497 49.7015 9.62891 49.957 9.62891H52.5656C52.9625 9.62891 53.0758 9.71408 53.1609 9.99769L55.0891 16.5198L56.5642 21.6537H56.7374L58.3286 16.4645L60.4271 10.0276C60.5123 9.74684 60.5975 9.63078 60.9943 9.63078H63.5702C63.8257 9.63078 63.939 9.77212 63.851 9.99956L58.1807 26.9552V26.9262Z" fill="#808080"/>
<path d="M68.3176 0.5H63.1958C64.9335 0.5 66.6 1.1903 67.8288 2.41904C69.0575 3.64778 69.7478 5.31431 69.7478 7.05202C69.7478 7.0567 69.7478 7.06231 69.7478 7.06699C69.7478 7.07167 69.7478 7.07167 69.7478 7.07448V11.5205C69.7478 12.434 70.1107 13.3101 70.7567 13.9561C71.4026 14.6021 72.2788 14.965 73.1923 14.965H74.0441C74.1538 14.965 74.2624 14.9434 74.3638 14.9013C74.4652 14.8593 74.5572 14.7977 74.6348 14.7201C74.7123 14.6425 74.7738 14.5503 74.8157 14.4489C74.8576 14.3475 74.8791 14.2389 74.879 14.1291V7.06606C74.8795 6.20405 74.7101 5.35038 74.3806 4.55384C74.0511 3.75729 73.5679 3.03346 72.9586 2.42371C72.3493 1.81396 71.6258 1.33023 70.8295 1.00015C70.0332 0.670077 69.1796 0.500123 68.3176 0.5Z" fill="#808080"/>
<path d="M63.1958 0.5H61.7207C61.3731 0.5 61.0398 0.63806 60.7941 0.883808C60.5483 1.12956 60.4103 1.46286 60.4103 1.8104V2.19042C60.4103 3.10396 60.7732 3.98008 61.4191 4.62604C62.0651 5.27201 62.9412 5.63491 63.8548 5.63491H68.3017C68.6838 5.63441 69.0505 5.78532 69.3215 6.05461C69.5926 6.3239 69.7459 6.68961 69.7478 7.07167C69.7478 7.06699 69.7478 7.06138 69.7478 7.0567C69.7478 5.31899 69.0575 3.65246 67.8288 2.42372C66.6001 1.19498 64.9335 0.50468 63.1958 0.50468" fill="#808080"/>
</svg>
