<svg width="107" height="31" viewBox="0 0 107 31" fill="none" xmlns="http://www.w3.org/2000/svg">
<g clip-path="url(#clip0_8857_83496)">
<path d="M20.9106 2.58057C9.72362 2.58057 0.645508 8.06179 0.645508 14.7861C0.645508 14.9637 0.645508 15.4372 0.645508 15.4963C0.645508 22.6231 8.57922 28.4003 20.9106 28.4003C33.319 28.4003 41.1755 22.6231 41.1755 15.4963C41.1755 15.2478 41.1755 15.1057 41.1755 14.7861C41.1755 8.06179 32.0975 2.58057 20.9106 2.58057ZM20.9234 26.2457C10.1608 26.2457 1.44274 21.1078 1.44274 14.7742C1.44274 8.44062 10.1608 3.30271 20.9234 3.30271C31.686 3.30271 40.4041 8.44062 40.4041 14.7742C40.4041 21.1078 31.6731 26.2457 20.9234 26.2457Z" fill="#808080"/>
<path d="M40.3394 13.7726L39.8121 13.8437L37.369 13.7371L32.1742 14.3054L27.4937 15.8799L27.7637 9.49891L28.7925 6.83526L29.7697 6.77607L30.7469 6.52745L32.7785 5.87634L34.1673 5.74612L34.7588 5.4975L34.5273 4.55043L33.7044 4.27814L34.0002 3.29555L33.2672 2.62076L31.3256 1.51977H30.7727L28.9082 2.97591L26.7479 5.3081L24.1762 9.81856L20.7173 17.0756L19.2 14.2225L15.0338 5.87634L14.468 5.43832L11.3949 2.13537L10.3147 1.49609L9.56892 1.69736L7.53728 3.12981L7.49871 4.19527L7.08724 4.36102L6.45716 5.11868L7.04866 5.60405L8.70741 5.85267L12.5778 6.91813L12.7707 7.02468L13.1307 8.03095L13.9537 10.6117V15.5839L13.2722 15.7141L11.8834 15.2287L6.95864 14.0923L4.50267 13.9028L1.41663 14.0686C1.44234 18.1884 3.7183 20.0707 3.7183 20.0707L4.70841 19.6445L9.18317 20.3666L16.1654 20.2128L19.7915 19.6445L20.7301 18.5317L21.3216 19.5143L24.922 20.3666H30.194L34.643 19.8576L36.6104 19.6563L37.8963 20.2956C40.6994 17.7386 40.3394 13.7726 40.3394 13.7726Z" fill="#808080"/>
<path d="M20.3324 18.8156C19.6767 19.6917 18.6608 19.8693 17.645 19.9284C17.1692 19.9521 16.7063 19.9876 16.2306 20.0231C14.5847 20.1415 12.8744 20.2598 11.2028 20.1297L11.0486 20.1179C9.26125 19.9876 7.40962 19.8455 5.66086 19.4786C4.82505 19.301 4.375 19.4075 3.89924 19.9048C3.83494 19.9639 3.5392 20.2598 3.47491 20.4493C3.44919 20.5203 3.59064 20.5677 3.61635 20.5914C3.70636 20.6624 4.14355 20.2717 4.22071 20.1888C4.5936 19.81 4.87649 19.7508 5.55799 19.8929C7.34532 20.2598 9.20981 20.4019 11.01 20.5322L11.1643 20.544C11.6787 20.5795 12.2058 20.6032 12.7202 20.6032C13.916 20.6032 15.099 20.5203 16.2563 20.4374C16.7191 20.4019 17.195 20.3664 17.6579 20.3428C18.7251 20.2835 19.921 20.0823 20.6796 19.0524C20.7439 18.9576 20.7181 18.8393 20.6282 18.7682C20.5382 18.709 20.3967 18.7327 20.3324 18.8156Z" fill="#1D0B41"/>
<path d="M40.4555 13.6777C40.3912 13.583 40.2626 13.5475 40.1598 13.5949C39.8254 13.7606 39.504 13.6777 39.131 13.583C38.861 13.512 38.591 13.4409 38.2824 13.4528C35.3377 13.6067 32.3417 14.1512 29.1142 15.0984C28.7542 15.2049 28.3942 15.3233 28.0599 15.4416C27.9569 15.4771 27.8541 15.5127 27.7512 15.5482C27.7641 15.3115 27.7641 15.0865 27.777 14.8498C27.8284 13.6067 27.8798 12.3163 27.8412 11.0495C27.8026 9.72367 28.2399 8.5043 28.7285 7.28494C28.8442 7.01265 28.9085 6.89427 29.3714 6.95347C30.0272 7.06001 30.773 6.79956 31.3387 6.56279C32.136 6.23132 32.8561 5.97087 33.6661 5.99454C34.3349 6.01822 34.7592 5.71042 34.8749 5.11849C35.0292 4.37267 34.3734 4.19509 33.9491 4.07671C33.9362 4.07671 33.9362 4.07671 33.9233 4.07671C34.0391 3.86362 34.142 3.62684 34.232 3.35456C34.2577 3.29537 34.232 3.22434 34.1934 3.16514C33.7305 2.63241 33.1004 2.26542 32.496 1.89843C32.2646 1.76821 32.0331 1.62614 31.8146 1.48408C31.3259 1.16444 30.7216 1.23547 30.13 1.68533C27.5198 3.65052 25.501 6.29051 23.9194 9.74735C23.6365 10.3629 23.3665 10.9786 23.0964 11.5942C22.3378 13.2989 21.5535 15.051 20.6662 16.7439L20.0618 15.4771C19.5861 14.4709 19.0974 13.4764 18.6217 12.4821C18.3774 11.973 18.1331 11.4639 17.8887 10.9549C17.2073 9.53425 16.5 8.05444 15.7672 6.62199C14.9699 5.0593 13.6326 3.91097 12.3468 2.78631C11.9095 2.40748 11.4466 2.00498 11.0223 1.60246C10.598 1.18812 9.92935 1.22363 9.65931 1.41305C9.42786 1.56695 9.18355 1.72085 8.93924 1.86291C8.42489 2.15888 7.8977 2.46668 7.51194 2.94021C7.19048 3.33089 7.12618 3.75707 7.3062 4.11222C6.88187 4.21877 6.45754 4.42002 6.30324 5.08298C6.29038 5.15401 6.3161 5.22504 6.38039 5.28424C6.43182 5.31975 6.49612 5.39079 6.56041 5.44997C6.75329 5.63939 6.95902 5.86432 7.24191 5.87616C8.01343 5.91167 8.72065 6.13661 9.46644 6.37337C10.2251 6.62199 11.0095 6.87059 11.8453 6.89427C12.3082 6.90611 12.5139 7.01265 12.6297 7.28494C12.6811 7.41517 12.7325 7.55722 12.784 7.68745C13.0154 8.26753 13.2597 8.8713 13.3754 9.47506C13.5683 10.434 13.5426 11.4284 13.504 12.3873C13.4654 13.4173 13.4398 14.4827 13.684 15.5246C13.3626 15.6074 13.1182 15.489 12.8482 15.3588C12.7325 15.2996 12.6039 15.2404 12.4624 15.193C10.0322 14.4236 7.44765 13.6777 4.67021 13.6777C4.64449 13.6777 4.61878 13.6777 4.59306 13.6777C3.86012 13.6777 3.14004 13.6777 2.40711 13.6777H1.40414C1.28842 13.6777 1.18555 13.7725 1.18555 13.879C1.18555 13.9856 1.28842 14.0802 1.40414 14.0802H2.40711C3.14004 14.0802 3.86012 14.0802 4.59306 14.0802C4.61878 14.0802 4.64449 14.0802 4.67021 14.0802C7.3705 14.0802 9.92934 14.8142 12.321 15.5719C12.4239 15.6074 12.5267 15.6547 12.6425 15.714C12.8739 15.8205 13.144 15.9508 13.4654 15.9508C13.6326 15.9508 13.8255 15.9152 14.0312 15.8205C14.1212 15.785 14.1727 15.6784 14.147 15.5837C13.8641 14.5419 13.9027 13.4883 13.9412 12.3755C13.9669 11.3929 14.0055 10.3866 13.7998 9.38035C13.6712 8.74107 13.4268 8.12547 13.1825 7.52171C13.1311 7.39149 13.0796 7.24942 13.0282 7.1192C12.8096 6.56279 12.2825 6.46809 11.8453 6.45625C11.0737 6.43257 10.3537 6.20764 9.59502 5.95903C8.84923 5.72226 8.07772 5.47365 7.24191 5.43814C7.15191 5.43814 6.98474 5.26056 6.86902 5.15401C6.83044 5.11849 6.79186 5.07114 6.75329 5.03562C6.88187 4.60944 7.16476 4.52657 7.55051 4.44371C7.56338 4.44371 7.57623 4.43186 7.57623 4.43186C7.60195 4.45554 7.61481 4.47922 7.65339 4.49106C8.14201 4.84621 9.13212 5.56836 10.2508 4.84621C10.6108 5.24872 10.9966 5.62755 11.4981 5.92352C11.5367 5.94719 11.5753 5.95903 11.6138 5.95903C11.691 5.95903 11.7552 5.92352 11.7938 5.86432C11.8581 5.76962 11.8324 5.65122 11.7296 5.58019C11.0609 5.17769 10.598 4.60944 10.0965 4.01752C9.92935 3.81626 9.76218 3.60317 9.58216 3.40191C9.50502 3.31904 9.36357 3.30721 9.27356 3.37824C9.18355 3.44927 9.17068 3.57949 9.24784 3.66236C9.415 3.85178 9.59502 4.06487 9.74932 4.26612C9.82647 4.36084 9.90362 4.4437 9.96792 4.53841C9.2607 4.96459 8.65635 4.71599 7.91055 4.18326C7.40907 3.81626 7.64052 3.39008 7.8334 3.16514C8.18059 2.75079 8.65635 2.47851 9.15783 2.18255C9.40214 2.04049 9.65931 1.88659 9.90362 1.72085C10.0065 1.64982 10.418 1.60246 10.688 1.86291C11.1252 2.27726 11.5753 2.66793 12.0253 3.0586C13.2855 4.14774 14.5841 5.28424 15.3556 6.77589C16.0886 8.20834 16.7958 9.67631 17.4773 11.097C17.7216 11.606 17.9659 12.115 18.2102 12.6241C18.6989 13.6185 19.1746 14.6248 19.6504 15.6192L20.2933 16.9688C20.3319 17.0399 20.3962 17.0754 20.4734 17.0872C20.3061 17.4542 20.3061 17.904 20.4862 18.3658C20.7305 19.0288 21.2835 19.6324 21.9263 19.9166C22.3892 20.1297 22.9421 20.2599 23.5465 20.2954L23.8551 20.3191C25.5139 20.4375 27.2241 20.5678 28.9214 20.5678C29.5514 20.5678 30.1815 20.5559 30.8116 20.5085C32.3803 20.402 34.0648 20.2599 35.6721 19.8692C36.5465 19.6561 36.9709 19.881 37.4466 20.3665C37.5238 20.4493 37.8452 20.7809 37.9352 20.5678C38.0767 20.2481 37.8452 20.1771 37.768 20.0941C37.228 19.5378 36.6365 19.2181 35.5564 19.4786C33.9877 19.8692 32.3289 20.0113 30.7858 20.106C28.497 20.2481 26.1568 20.0823 23.8937 19.9166L23.5851 19.893C23.0322 19.8574 22.5307 19.739 22.1192 19.5496C21.5791 19.3129 21.1162 18.8038 20.8977 18.2355C20.7562 17.833 20.7562 17.466 20.9105 17.1819C21.8749 15.4061 22.6979 13.5357 23.4951 11.7362C23.7652 11.1206 24.0351 10.505 24.3181 9.90125C25.861 6.5036 27.8542 3.92281 30.4001 1.99314C30.6959 1.76821 31.146 1.54328 31.5445 1.81556C31.776 1.96946 32.0075 2.11152 32.2389 2.24174C32.8046 2.57322 33.3447 2.89286 33.7562 3.33089C33.5248 3.99384 33.229 4.39634 32.8304 4.57392C32.4704 4.73966 31.9945 4.72782 31.3773 4.52657C31.6731 4.17142 31.9431 3.80442 32.1874 3.46111C32.2517 3.3664 32.226 3.24801 32.1232 3.17699C32.0203 3.11779 31.8917 3.14147 31.8146 3.23618C31.2231 4.07671 30.5416 5.02379 29.4742 5.59204C29.3714 5.65122 29.3329 5.76962 29.3972 5.86432C29.4358 5.92352 29.5128 5.97087 29.59 5.97087C29.6286 5.97087 29.6671 5.95902 29.7057 5.94719C30.2587 5.65122 30.7087 5.2724 31.0945 4.85805C31.8917 5.13034 32.5346 5.16585 33.0361 4.92908C33.2933 4.81069 33.5118 4.63312 33.7047 4.37267C33.7305 4.40819 33.769 4.43186 33.8076 4.44371C34.3091 4.58577 34.4892 4.66864 34.4248 5.02379C34.3477 5.41446 34.1162 5.5802 33.6661 5.56836C32.7661 5.53284 31.9945 5.8288 31.146 6.17212C30.6701 6.36154 29.9757 6.62199 29.4228 6.52727C28.7285 6.42072 28.4714 6.68117 28.3041 7.10737C27.8026 8.37408 27.3527 9.61712 27.3912 11.014C27.417 12.269 27.3655 13.5594 27.3269 14.7905C27.3141 15.0984 27.3013 15.4061 27.2883 15.714C27.2627 15.7377 27.2112 15.7732 27.1726 15.7968C27.1212 15.8323 27.0698 15.8678 27.0312 15.9033C26.9411 15.9863 26.9411 16.1046 27.0312 16.1875C27.0698 16.223 27.134 16.2467 27.1855 16.2467C27.2369 16.2467 27.3013 16.223 27.3398 16.1875C27.3655 16.1638 27.4041 16.1401 27.4426 16.1046C27.507 16.0572 27.5841 15.9981 27.6355 15.9389C27.6613 15.9389 27.6741 15.9389 27.6998 15.927C27.867 15.8678 28.0213 15.8205 28.1884 15.7613C28.5356 15.6429 28.8828 15.5246 29.23 15.418C32.406 14.4709 35.3763 13.9381 38.2824 13.7843C38.5138 13.7725 38.7453 13.8316 38.9896 13.9026C39.4011 14.0092 39.864 14.1394 40.3527 13.879C40.4812 13.9026 40.5198 13.7843 40.4555 13.6777Z" fill="#1D0B41"/>
</g>
<path d="M103.903 11.9699C103.565 12.3899 103.08 12.5993 102.446 12.5993C101.813 12.5993 101.325 12.3899 100.984 11.9699C100.642 11.5499 100.472 10.952 100.472 10.1782C100.472 9.40439 100.642 8.80851 100.984 8.39059C101.325 7.97368 101.813 7.76421 102.446 7.76421C103.08 7.76421 103.565 7.97368 103.903 8.39059C104.242 8.80851 104.413 9.40439 104.413 10.1782C104.413 10.952 104.242 11.5499 103.903 11.9699ZM105.635 7.28121C104.936 6.46468 103.876 6.05591 102.452 6.05591C101.031 6.05591 99.9702 6.46468 99.272 7.28121C98.5728 8.09875 98.2231 9.06374 98.2231 10.1782C98.2231 11.312 98.5728 12.281 99.272 13.0874C99.9702 13.8907 101.031 14.2944 102.452 14.2944C103.876 14.2944 104.936 13.8907 105.635 13.0874C106.334 12.281 106.683 11.312 106.683 10.1782C106.683 9.06374 106.334 8.09875 105.635 7.28121Z" fill="#808080"/>
<path d="M86.6785 11.0153C86.6644 11.6935 86.4563 12.1613 86.0566 12.4165C85.6569 12.6728 85.2201 12.8019 84.7463 12.8019C84.4468 12.8019 84.193 12.7236 83.9839 12.5701C83.7747 12.4155 83.6713 12.1653 83.6713 11.8186C83.6713 11.4312 83.8412 11.1444 84.1832 10.9583C84.3869 10.8506 84.718 10.757 85.182 10.6828L85.6765 10.5974C85.9226 10.5536 86.1165 10.5069 86.2581 10.457C86.4019 10.4082 86.5402 10.3432 86.6785 10.2618V11.0153ZM87.7797 6.59811C87.0706 6.26356 86.2603 6.09375 85.3475 6.09375C83.9446 6.09375 82.9546 6.43541 82.3784 7.11772C82.0157 7.55496 81.8131 8.11118 81.7652 8.78941H83.8608C83.9131 8.49046 84.0154 8.25353 84.1701 8.07864C84.3869 7.84171 84.7539 7.72274 85.2735 7.72274C85.7375 7.72274 86.0893 7.78172 86.3289 7.90476C86.5674 8.02474 86.6872 8.24438 86.6872 8.56164C86.6872 8.82297 86.5326 9.01414 86.2189 9.13819C86.0446 9.20937 85.756 9.26835 85.3508 9.31614L84.608 9.40156C83.7649 9.50019 83.1234 9.66695 82.6899 9.89981C81.8959 10.3269 81.5005 11.0153 81.5005 11.9691C81.5005 12.7033 81.7456 13.2717 82.239 13.6723C82.7313 14.073 83.3576 14.2407 84.1135 14.2743C88.8526 14.4716 88.7992 11.9427 88.8428 11.4159V8.5047C88.8428 7.57123 88.4877 6.9357 87.7797 6.59811Z" fill="#808080"/>
<path d="M76.9726 7.8272C77.515 7.8272 77.9126 7.98379 78.1696 8.29597C78.3461 8.52679 78.4561 8.78812 78.4986 9.07691H80.8371C80.7085 7.97566 80.2957 7.20692 79.5987 6.7707C78.8994 6.33752 78.0052 6.1189 76.9105 6.1189C75.622 6.1189 74.6112 6.48801 73.8804 7.22523C73.1484 7.96346 72.7825 8.99454 72.7825 10.3205C72.7825 11.494 73.1136 12.4508 73.7758 13.189C74.438 13.9252 75.4717 14.2943 76.8768 14.2943C78.2829 14.2943 79.3438 13.853 80.0594 12.9684C80.507 12.4203 80.7586 11.8387 80.812 11.2245H78.4822C78.4343 11.6302 78.2982 11.9617 78.0727 12.2169C77.8483 12.4711 77.4693 12.5993 76.9334 12.5993C76.1797 12.5993 75.6656 12.279 75.3922 11.6343C75.243 11.2916 75.1678 10.8371 75.1678 10.2707C75.1678 9.67685 75.243 9.20096 75.3922 8.84201C75.6765 8.16683 76.2036 7.8272 76.9726 7.8272Z" fill="#808080"/>
<path d="M72.1565 6.1189C67.3543 6.1189 67.6386 10.0887 67.6386 10.0887V14.1205H69.817V10.3388C69.817 9.71955 69.9008 9.25994 70.0675 8.962C70.3659 8.43324 70.9508 8.16784 71.8222 8.16784C71.8875 8.16784 71.9736 8.17089 72.0803 8.17598C72.186 8.18005 72.3069 8.1892 72.4452 8.20445V6.13415C72.3482 6.12805 72.2862 6.12601 72.2589 6.12296C72.2306 6.12093 72.1968 6.1189 72.1565 6.1189Z" fill="#808080"/>
<path d="M61.2219 8.2258C61.529 7.93194 61.9593 7.78449 62.5137 7.78449C63.0256 7.78449 63.4525 7.92278 63.7978 8.2014C64.142 8.47798 64.3348 8.88574 64.374 9.42162H60.6457C60.723 8.91828 60.9158 8.52069 61.2219 8.2258ZM64.1507 12.0136C64.0592 12.1356 63.9612 12.2403 63.8523 12.3217C63.5451 12.5586 63.1269 12.6298 62.6346 12.6298C62.1684 12.6298 61.8046 12.5637 61.4746 12.3695C60.9311 12.0583 60.625 11.5306 60.5923 10.7547H66.6221C66.6308 10.0877 66.6068 9.57719 66.5491 9.2213C66.4489 8.61627 66.2289 8.08243 65.8902 7.62383C65.5144 7.1032 65.0362 6.72189 64.459 6.47988C63.8828 6.23888 63.2347 6.1189 62.5137 6.1189C61.2992 6.1189 60.3135 6.47581 59.5532 7.18964C58.793 7.90448 58.4117 8.93048 58.4117 10.2687C58.4117 11.6983 58.8333 12.7294 59.6763 13.3629C60.5182 13.9964 61.4909 14.3147 62.5921 14.3147C63.9263 14.3147 64.9643 13.9385 65.7061 13.187C66.1058 12.7914 66.3563 12.4 66.462 12.0136H64.1507Z" fill="#808080"/>
<path d="M57.5371 14.1193H55.5461V9.43979C55.5461 9.01271 55.3958 7.99586 54.0822 7.99586C53.2065 7.99586 52.5736 8.58564 52.5736 9.43979V14.1193H50.5815V9.43979C50.5815 9.01271 50.4454 7.99586 49.1329 7.99586C48.2419 7.99586 47.6233 8.58564 47.6233 9.43979V14.1193H45.6322V9.48453C45.6322 7.55252 47.0046 6.09131 49.1329 6.09131C50.1894 6.09131 51.0488 6.50618 51.6075 7.17018C52.1957 6.50618 53.0703 6.09131 54.0822 6.09131C56.2551 6.09131 57.5371 7.49354 57.5371 9.48453V14.1193Z" fill="#808080"/>
<path d="M94.9609 11.9861C94.6429 12.4122 94.1756 12.6247 93.5635 12.6247C92.9503 12.6247 92.4939 12.4101 92.1933 11.983C91.8927 11.5539 91.7424 10.9316 91.7424 10.2178C91.7424 9.55583 91.8894 9.00165 92.1857 8.55525C92.4808 8.10886 92.9448 7.88515 93.5788 7.88515C93.9937 7.88515 94.3586 8.00717 94.6734 8.25325C95.1842 8.65999 95.4402 9.38907 95.4402 10.3347C95.4402 11.0099 95.2801 11.5611 94.9609 11.9861ZM97.575 3.6754C97.575 3.6754 95.3792 3.45678 95.3792 5.10305L95.3781 7.28216C95.1352 6.91813 94.8193 6.63239 94.4294 6.42801C94.0406 6.2226 93.5951 6.11888 93.0919 6.11888C92.0038 6.11888 91.1357 6.49715 90.4844 7.25369C89.833 8.01022 89.5095 9.10028 89.5095 10.4191C89.5095 11.5631 89.8395 12.5006 90.4996 13.2317C91.1607 13.9608 92.4569 14.2811 93.6071 14.2811C97.6197 14.2811 97.5728 11.0679 97.5728 11.0679L97.575 3.6754Z" fill="#808080"/>
<path d="M65.1962 21.5274C65.1962 20.7607 65.0361 20.1709 64.7148 19.7571C64.3945 19.3453 63.936 19.1368 63.3369 19.1368C62.7618 19.1368 62.312 19.3453 61.9907 19.7571C61.6933 20.1313 61.5441 20.7231 61.5441 21.5274C61.5441 22.2778 61.7031 22.8361 62.0244 23.2103C62.3436 23.6241 62.8043 23.8306 63.4012 23.8306C63.9567 23.8306 64.3945 23.6241 64.7148 23.2103C65.0361 22.7974 65.1962 22.2382 65.1962 21.5274ZM61.5441 27.0326C61.5441 27.3072 61.4374 27.5441 61.2217 27.7403C61.0093 27.9376 60.7534 28.0362 60.4538 28.0362H59.3657V20.9661C59.3657 19.5913 59.8613 18.7311 60.6782 18.1484C61.2184 17.7641 62.0223 17.397 63.5297 17.397C64.547 17.397 65.7386 17.7661 66.3823 18.4982C67.1045 19.3219 67.4051 20.2401 67.4051 21.4389C67.4051 22.6795 67.0849 23.6801 66.4455 24.4498C65.805 25.1982 64.9816 25.5704 63.9774 25.5704C63.4437 25.5704 62.9742 25.4819 62.569 25.306C62.1399 25.1087 61.8001 24.8037 61.5441 24.3898V27.0326Z" fill="#808080"/>
<path d="M78.257 21.5284C78.257 22.8849 78.6774 23.6363 79.5161 23.7848C80.3537 23.9302 80.9734 23.7482 81.3721 23.2377C81.5616 23.0232 81.6967 22.6825 81.7816 22.2219C81.8644 21.7602 81.8709 21.3027 81.7969 20.8512C81.725 20.3977 81.5507 19.995 81.2773 19.6411C81.0061 19.2883 80.6064 19.1103 80.0825 19.1103C79.3691 19.1103 78.8876 19.3574 78.6349 19.8465C78.3822 20.3387 78.257 20.899 78.257 21.5284ZM81.8448 24.9186V24.4193C81.4679 24.9704 80.9571 25.3121 80.3177 25.4504C79.6784 25.5877 79.0434 25.5388 78.416 25.3019C77.7854 25.067 77.2451 24.6298 76.7942 23.9912C76.3433 23.3506 76.1189 22.5107 76.1189 21.4684C76.1189 20.2512 76.4173 19.2629 77.0142 18.5063C77.6122 17.7498 78.5729 17.4041 79.894 17.3705C81.1956 17.338 81.9526 17.6135 82.6944 18.1372C83.5047 18.7117 83.984 19.5923 83.984 20.9681V25.127C83.9872 26.4499 82.9983 28.9026 79.894 28.6951C77.9705 28.565 76.9031 27.8278 76.3073 26.1591H78.6044C78.7722 26.4337 79.0281 26.6442 79.3756 26.7906C79.7198 26.9401 80.0683 26.9787 80.4114 26.9096C80.7578 26.8404 81.0726 26.6482 81.3579 26.335C81.64 26.0208 81.8023 25.548 81.8448 24.9186Z" fill="#808080"/>
<path d="M73.1529 22.3483C73.1387 23.0265 72.9307 23.4933 72.532 23.7495C72.1323 24.0047 71.6955 24.1329 71.2217 24.1329C70.9211 24.1329 70.6673 24.0556 70.4593 23.902C70.2502 23.7485 70.1456 23.4973 70.1456 23.1506C70.1456 22.7632 70.3166 22.4764 70.6586 22.2914C70.8623 22.1826 71.1934 22.089 71.6563 22.0148L72.1508 21.9294C72.3981 21.8856 72.592 21.8389 72.7325 21.789C72.8762 21.7402 73.0146 21.6762 73.1529 21.5948V22.3483ZM74.2541 17.9311C73.545 17.5966 72.7346 17.4268 71.823 17.4268C70.419 17.4268 69.43 17.7684 68.8527 18.4507C68.4911 18.887 68.2875 19.4432 68.2406 20.1224H70.3373C70.3885 19.8225 70.4909 19.5855 70.6456 19.4106C70.8623 19.1737 71.2294 19.0557 71.7478 19.0557C72.214 19.0557 72.5647 19.1147 72.8033 19.2367C73.0418 19.3578 73.1627 19.5774 73.1627 19.8946C73.1627 20.155 73.0069 20.3471 72.6943 20.4712C72.5212 20.5424 72.2314 20.6014 71.8262 20.6491L71.0834 20.7335C70.2404 20.8332 69.5988 21 69.1653 21.2318C68.3713 21.6589 67.9749 22.3483 67.9749 23.3011C67.9749 24.0352 68.221 24.6037 68.7144 25.0043C69.2067 25.4039 69.833 25.5737 70.5889 25.6063C75.3258 25.8035 75.2736 23.2736 75.3171 22.7479V19.8367C75.3171 18.9032 74.9631 18.2687 74.2541 17.9311Z" fill="#808080"/>
<path d="M90.4953 23.2589C90.1566 23.6799 89.6708 23.8893 89.038 23.8893C88.4041 23.8893 87.9161 23.6799 87.5763 23.2589C87.2332 22.8399 87.0633 22.243 87.0633 21.4692C87.0633 20.6954 87.2332 20.0995 87.5763 19.6816C87.9161 19.2637 88.4041 19.0562 89.038 19.0562C89.6708 19.0562 90.1566 19.2637 90.4953 19.6816C90.8341 20.0995 91.004 20.6954 91.004 21.4692C91.004 22.243 90.8341 22.8399 90.4953 23.2589ZM92.2272 18.5722C91.5279 17.7547 90.467 17.3469 89.0434 17.3469C87.6231 17.3469 86.5612 17.7547 85.863 18.5722C85.1637 19.3888 84.8141 20.3537 84.8141 21.4692C84.8141 22.603 85.1637 23.571 85.863 24.3774C86.5612 25.1807 87.6231 25.5844 89.0434 25.5844C90.467 25.5844 91.5279 25.1807 92.2272 24.3774C92.9253 23.571 93.2728 22.603 93.2728 21.4692C93.2728 20.3537 92.9253 19.3888 92.2272 18.5722Z" fill="#808080"/>
<defs>
<clipPath id="clip0_8857_83496">
<rect width="40.3976" height="30" fill="white" transform="translate(0.966553 0.5)"/>
</clipPath>
</defs>
</svg>
