<svg width="173" height="31" viewBox="0 0 173 31" fill="none" xmlns="http://www.w3.org/2000/svg">
<g clip-path="url(#clip0_8848_83880)">
<path d="M23.6004 14.3612C23.5281 13.2768 23.239 12.1925 22.6607 11.2528L17.745 2.65034C17.3836 1.99974 17.0944 1.27685 16.9498 0.553955L16.733 0.915401C15.504 3.01179 15.504 5.68649 16.733 7.78287L20.7089 14.6503C21.9378 16.7467 21.9378 19.4214 20.7089 21.5178L20.492 21.8793C20.3474 21.1564 20.0583 20.4335 19.6968 19.7829L16.0824 13.4937L13.7691 9.44552C13.4077 8.79492 13.1185 8.07203 12.9739 7.34914L12.7571 7.71058C11.5281 9.80697 11.5281 12.4094 12.7571 14.5781L16.733 21.4455C17.9619 23.5419 17.9619 26.2166 16.733 28.313L16.5161 28.6744C16.3715 27.9515 16.0824 27.2287 15.7209 26.5781L10.733 17.9756C10.0824 16.819 9.7932 15.5178 9.7932 14.2166C4.51609 15.5901 0.829346 18.554 0.829346 21.9515C0.829346 26.7226 7.91368 30.554 16.6607 30.554C25.4077 30.554 32.492 26.7226 32.492 21.9515C32.5643 18.6985 28.9498 15.7347 23.6004 14.3612ZM38.5643 29.0359C38.6366 27.807 38.7812 27.0118 39.1426 25.9997C40.8052 26.7949 42.9739 27.1564 44.5643 27.1564C47.3113 27.1564 48.9016 26.2889 48.9016 24.4817C48.9016 22.7467 47.745 21.9515 44.998 20.7226L43.4799 20.1443C40.6607 18.9154 38.7812 17.325 38.7812 14.2166C38.7812 10.819 41.1667 8.65034 45.9378 8.65034C47.8896 8.65034 49.6968 8.9395 51.3595 9.51781C51.2872 10.6744 51.0703 11.6142 50.7812 12.4817C49.1908 11.9034 47.239 11.6142 45.8655 11.6142C43.2631 11.6142 42.1065 12.6262 42.1065 14.2166C42.1065 15.7347 43.2631 16.6744 45.3595 17.5419L46.9498 18.1925C50.7089 19.7829 52.2992 21.5178 52.2992 24.4094C52.2992 27.807 49.6968 30.1925 44.6366 30.1925C42.251 30.1925 40.2269 29.8311 38.5643 29.0359ZM68.2751 14.7949V29.6865H65.239L65.0944 27.8793C64.2269 29.1805 62.998 30.0479 60.9016 30.0479C56.998 30.0479 54.3233 27.1564 54.3233 22.1684C54.3233 16.9636 57.1426 13.9274 62.6366 13.9274C64.8052 13.9997 66.6125 14.2166 68.2751 14.7949ZM65.0221 26.2889V16.9636C64.3715 16.819 63.5763 16.819 62.6366 16.819C59.239 16.819 57.6486 18.9154 57.6486 22.2407C57.6486 25.2768 58.8775 27.4455 61.7691 27.4455C63.1426 27.3732 64.1546 26.9395 65.0221 26.2889ZM85.0462 19.7106V29.6865H81.7932V20.2889C81.7932 17.9034 80.998 16.819 77.745 16.819C76.9498 16.819 76.0824 16.8913 75.1426 17.0359V29.6865H71.8896V14.7949C73.986 14.2889 76.2992 13.9274 77.8173 13.9274C83.3113 13.9997 85.0462 16.0961 85.0462 19.7106ZM94.1547 27.3009C95.0944 27.3009 96.0342 27.1564 96.6848 26.8672C96.6125 27.7347 96.4679 28.7467 96.3233 29.6142C95.4559 29.9756 94.4438 30.1202 93.5763 30.1202C90.3956 30.1202 88.3715 28.6744 88.3715 25.06V9.37323C89.3836 9.01179 90.6125 8.86721 91.6245 8.86721V14.5058H96.8293C96.7571 15.5178 96.6848 16.4576 96.5402 17.325H91.6245V24.6262C91.6245 26.5058 92.5643 27.3009 94.1547 27.3009ZM111.721 14.7949V29.6865H108.685L108.54 27.8793C107.673 29.1805 106.444 30.0479 104.347 30.0479C100.444 30.0479 97.7691 27.1564 97.7691 22.1684C97.7691 16.9636 100.588 13.9274 106.082 13.9274C108.251 13.9997 109.986 14.2166 111.721 14.7949ZM108.396 26.2889V16.9636C107.745 16.819 106.95 16.819 106.01 16.819C102.612 16.819 101.022 18.9154 101.022 22.2407C101.022 25.2768 102.251 27.4455 105.143 27.4455C106.516 27.3732 107.6 26.9395 108.396 26.2889ZM128.492 19.7106V29.6865H125.167V20.2889C125.167 17.9034 124.372 16.819 121.118 16.819C120.323 16.819 119.456 16.8913 118.516 17.0359V29.6865H115.263V14.7949C117.359 14.2889 119.673 13.9274 121.191 13.9274C126.685 13.9997 128.492 16.0961 128.492 19.7106ZM145.046 8.86721V29.6865H142.01L141.865 27.807C140.998 29.1805 139.769 30.0479 137.6 30.0479C133.697 30.0479 131.022 27.1564 131.022 22.1684C131.022 16.9636 133.841 13.9274 139.335 13.9274C140.203 13.9274 140.998 13.9997 141.793 14.1443V9.22865C142.805 8.9395 143.962 8.86721 145.046 8.86721ZM141.793 26.2889V17.1082C140.926 16.9636 140.058 16.819 139.191 16.819C135.938 16.819 134.42 18.8431 134.42 22.2407C134.42 25.2768 135.649 27.4455 138.54 27.4455C139.841 27.3732 140.926 26.9395 141.793 26.2889ZM161.528 23.325H151.046C151.48 25.9997 152.998 27.2287 155.962 27.2287C157.769 27.2287 159.576 26.8672 161.167 26.072C161.022 26.9395 160.878 28.0961 160.661 29.0359C159.143 29.6865 157.625 29.9756 155.817 29.9756C150.323 29.9756 147.721 26.9395 147.721 21.8793C147.721 17.4696 149.745 13.9274 154.95 13.9274C159.649 13.9274 161.673 16.9636 161.673 20.7226C161.673 21.7347 161.673 22.4576 161.528 23.325ZM151.046 20.5781H158.42C158.42 18.1202 157.118 16.6744 154.878 16.6744C152.492 16.7467 151.263 18.0479 151.046 20.5781ZM173.022 14.1443C173.022 15.1564 172.878 16.313 172.733 16.9636C171.938 16.8913 171.215 16.819 170.275 16.819C169.48 16.819 168.685 16.8913 167.89 16.9636V29.6865H164.637V14.7949C166.01 14.2889 168.396 13.9274 170.203 13.9274C171.143 13.9997 172.299 13.9997 173.022 14.1443Z" fill="#808080"/>
</g>
<defs>
<clipPath id="clip0_8848_83880">
<rect width="172" height="31" fill="white" transform="translate(0.682861)"/>
</clipPath>
</defs>
</svg>
