<svg width="122" height="31" viewBox="0 0 122 31" fill="none" xmlns="http://www.w3.org/2000/svg">
<path d="M33.7242 4.23653C33.1642 3.73148 33.1642 2.91479 33.7242 2.41511C34.2843 1.91543 35.1899 1.91005 35.744 2.41511L39.5571 5.85378C39.8252 6.09557 39.9741 6.42331 39.9741 6.76718C39.9741 7.11105 39.8252 7.4388 39.5571 7.68058L35.744 11.1193C35.1839 11.6243 34.2783 11.6243 33.7242 11.1193C33.1701 10.6142 33.1642 9.79751 33.7242 9.29783L35.0945 8.06206L24.7277 8.05131C23.9353 8.05131 23.2978 7.47641 23.2978 6.76181C23.2978 6.04721 23.9353 5.47231 24.7277 5.47231H35.1005L33.7242 4.23653ZM8.10498 22.2896L6.73465 23.5253H17.1015C17.8939 23.5253 18.5314 24.1003 18.5314 24.8148C18.5314 25.5294 17.8939 26.1044 17.1015 26.1044H6.72869L8.09902 27.3401C8.65907 27.8452 8.65907 28.6619 8.09902 29.1616C7.53897 29.6612 6.63336 29.6666 6.07927 29.1616L2.26618 25.7282C1.99807 25.4865 1.84912 25.1587 1.84912 24.8148C1.84912 24.471 1.99807 24.1432 2.26618 23.9015L6.07927 20.4628C6.63932 19.9577 7.54493 19.9577 8.09902 20.4628C8.65311 20.9678 8.65907 21.7845 8.09902 22.2842L8.10498 22.2896ZM7.56876 5.47231H21.9811C21.7606 5.85916 21.6296 6.29436 21.6296 6.76181C21.6296 8.30384 23.0178 9.55573 24.7277 9.55573H31.7223C31.484 10.4691 31.7581 11.4631 32.5445 12.1777C33.754 13.2684 35.7142 13.2684 36.9236 12.1777L38.0735 11.1407V22.6657C38.0735 24.5623 36.3636 26.1044 34.2604 26.1044H19.8481C20.0686 25.7175 20.1996 25.2823 20.1996 24.8148C20.1996 23.2728 18.8114 22.0209 17.1015 22.0209H10.1069C10.3452 21.1075 10.0711 20.1135 9.28466 19.3989C8.07519 18.3082 6.11502 18.3082 4.90556 19.3989L3.75567 20.4359V8.91098C3.75567 7.01434 5.4656 5.47231 7.56876 5.47231ZM11.3819 8.91098H7.56876V12.3497C9.67193 12.3497 11.3819 10.8076 11.3819 8.91098ZM34.2604 19.227C32.1573 19.227 30.4473 20.769 30.4473 22.6657H34.2604V19.227ZM20.9146 20.9463C24.0723 20.9463 26.6342 18.636 26.6342 15.7883C26.6342 12.9407 24.0723 10.6303 20.9146 10.6303C17.7569 10.6303 15.195 12.9407 15.195 15.7883C15.195 18.636 17.7569 20.9463 20.9146 20.9463Z" fill="#808080"/>
<path d="M53.1112 12.8374H51.5235V6.67113H49.4902V5.34977H55.1444V6.67113H53.1112V12.8374Z" fill="#808080"/>
<path d="M59.3697 7.00403C59.4482 7.00403 59.5387 7.00915 59.6411 7.01939C59.7469 7.02622 59.8323 7.03646 59.8972 7.05012L59.7794 8.51488C59.7282 8.4978 59.6548 8.48585 59.5592 8.47902C59.467 8.46878 59.3867 8.46366 59.3184 8.46366C59.117 8.46366 58.9207 8.48927 58.7295 8.54048C58.5417 8.5917 58.3727 8.67535 58.2224 8.79144C58.0722 8.90411 57.9527 9.05434 57.8639 9.24213C57.7786 9.42651 57.7359 9.65356 57.7359 9.9233V12.8374H56.1738V7.11158H57.3569L57.5874 8.07442H57.6642C57.7769 7.87981 57.9169 7.70226 58.0842 7.54179C58.2549 7.3779 58.4478 7.24815 58.6629 7.15255C58.8814 7.05353 59.117 7.00403 59.3697 7.00403Z" fill="#808080"/>
<path d="M63.2825 6.99378C64.0507 6.99378 64.6397 7.16109 65.0494 7.49569C65.4592 7.8303 65.664 8.33904 65.664 9.02191V12.8374H64.5731L64.271 12.059H64.23C64.0661 12.2638 63.8988 12.4311 63.7281 12.5609C63.5574 12.6906 63.361 12.7862 63.1391 12.8477C62.9172 12.9091 62.6474 12.9399 62.3299 12.9399C61.9919 12.9399 61.688 12.875 61.4183 12.7453C61.1519 12.6155 60.942 12.4175 60.7883 12.1512C60.6347 11.8814 60.5579 11.54 60.5579 11.1269C60.5579 10.5191 60.7712 10.0718 61.198 9.78501C61.6248 9.49479 62.265 9.33432 63.1186 9.30359L64.1122 9.27286V9.02191C64.1122 8.72144 64.0337 8.50122 63.8766 8.36123C63.7195 8.22124 63.501 8.15125 63.221 8.15125C62.9445 8.15125 62.673 8.19051 62.4067 8.26904C62.1404 8.34757 61.8741 8.44659 61.6078 8.56609L61.0905 7.51106C61.3944 7.35058 61.7341 7.22425 62.1097 7.13206C62.4887 7.03988 62.8796 6.99378 63.2825 6.99378ZM64.1122 10.1845L63.5079 10.205C63.0025 10.2186 62.6508 10.3091 62.4528 10.4764C62.2582 10.6437 62.1609 10.8639 62.1609 11.1371C62.1609 11.3761 62.2309 11.5468 62.3709 11.6493C62.5109 11.7483 62.6935 11.7978 62.9189 11.7978C63.2535 11.7978 63.5352 11.6988 63.7639 11.5007C63.9961 11.3027 64.1122 11.021 64.1122 10.6557V10.1845Z" fill="#808080"/>
<path d="M70.5295 7.00403C71.1406 7.00403 71.6323 7.17133 72.0045 7.50593C72.3766 7.83713 72.5627 8.36977 72.5627 9.10385V12.8374H71.0006V9.49309C71.0006 9.08337 70.9255 8.77437 70.7753 8.56609C70.6285 8.35782 70.3963 8.25368 70.0788 8.25368C69.6008 8.25368 69.2747 8.41586 69.1006 8.74022C68.9264 9.06459 68.8394 9.53235 68.8394 10.1435V12.8374H67.2773V7.11158H68.4706L68.6806 7.84396H68.7677C68.8906 7.64592 69.0425 7.48545 69.2235 7.36253C69.4079 7.23962 69.611 7.14914 69.8329 7.09109C70.0583 7.03305 70.2905 7.00403 70.5295 7.00403Z" fill="#808080"/>
<path d="M78.1657 11.1371C78.1657 11.5263 78.0735 11.8558 77.8891 12.1256C77.7081 12.3919 77.4367 12.595 77.0748 12.735C76.7129 12.8716 76.2622 12.9399 75.7227 12.9399C75.3232 12.9399 74.9801 12.9143 74.6933 12.8631C74.4099 12.8118 74.1231 12.7265 73.8329 12.607V11.3164C74.1436 11.4563 74.4765 11.5724 74.8315 11.6646C75.1901 11.7534 75.5042 11.7978 75.7739 11.7978C76.0778 11.7978 76.2946 11.7534 76.4243 11.6646C76.5575 11.5724 76.6241 11.4529 76.6241 11.3061C76.6241 11.2105 76.5968 11.1251 76.5421 11.05C76.4909 10.9715 76.3782 10.8844 76.2041 10.7888C76.03 10.6898 75.7568 10.5618 75.3847 10.4047C75.0262 10.2545 74.7308 10.1025 74.4986 9.9489C74.2699 9.79526 74.0992 9.6143 73.9865 9.40602C73.8772 9.19433 73.8226 8.9263 73.8226 8.60194C73.8226 8.07272 74.0275 7.67495 74.4372 7.40863C74.8503 7.13889 75.4017 7.00403 76.0914 7.00403C76.4465 7.00403 76.7846 7.03988 77.1055 7.11158C77.4299 7.18328 77.7628 7.29766 78.1042 7.45472L77.633 8.58146C77.3496 8.45854 77.0816 8.35782 76.8289 8.27929C76.5797 8.20076 76.3253 8.16149 76.0658 8.16149C75.8371 8.16149 75.6646 8.19222 75.5486 8.25368C75.4325 8.31514 75.3744 8.40903 75.3744 8.53536C75.3744 8.62755 75.4035 8.70949 75.4615 8.7812C75.523 8.8529 75.639 8.93313 75.8098 9.02191C75.9839 9.10727 76.2383 9.21823 76.5729 9.35481C76.8972 9.48797 77.1789 9.62795 77.4179 9.77477C77.6569 9.91817 77.8413 10.0974 77.971 10.3125C78.1008 10.5242 78.1657 10.7991 78.1657 11.1371Z" fill="#808080"/>
<path d="M82.5497 8.28441H81.1976V12.8374H79.6355V8.28441H78.7751V7.53154L79.6355 7.11158V6.69161C79.6355 6.20336 79.7175 5.82437 79.8814 5.55463C80.0487 5.28148 80.2826 5.09028 80.583 4.98102C80.8869 4.86835 81.2454 4.81201 81.6585 4.81201C81.9624 4.81201 82.239 4.83762 82.4882 4.88883C82.7375 4.93664 82.9406 4.99127 83.0977 5.05272L82.6982 6.19995C82.5787 6.16239 82.449 6.12824 82.309 6.09751C82.169 6.06679 82.0085 6.05142 81.8276 6.05142C81.609 6.05142 81.4486 6.118 81.3461 6.25116C81.2471 6.38091 81.1976 6.54821 81.1976 6.75307V7.11158H82.5497V8.28441Z" fill="#808080"/>
<path d="M85.8121 7.00403C86.3413 7.00403 86.7971 7.10646 87.1795 7.31132C87.562 7.51276 87.8573 7.8064 88.0656 8.19222C88.2738 8.57804 88.378 9.04922 88.378 9.60576V10.3637H84.6854C84.7024 10.8042 84.8339 11.1508 85.0797 11.4034C85.329 11.6527 85.6738 11.7773 86.1143 11.7773C86.4796 11.7773 86.8142 11.7397 87.1181 11.6646C87.422 11.5895 87.7344 11.4768 88.0553 11.3266V12.5353C87.7719 12.6753 87.4749 12.7777 87.1642 12.8426C86.8569 12.9074 86.483 12.9399 86.0426 12.9399C85.469 12.9399 84.9602 12.834 84.5164 12.6223C84.0759 12.4107 83.7293 12.088 83.4767 11.6544C83.2274 11.2207 83.1028 10.6745 83.1028 10.0155C83.1028 9.34627 83.2155 8.78973 83.4408 8.34587C83.6696 7.89859 83.9871 7.56398 84.3934 7.34205C84.7997 7.1167 85.2726 7.00403 85.8121 7.00403ZM85.8223 8.1154C85.5185 8.1154 85.2658 8.21271 85.0644 8.40732C84.8663 8.60194 84.7519 8.90753 84.7212 9.32408H86.9132C86.9098 9.0919 86.8671 8.88533 86.7852 8.70437C86.7067 8.52341 86.5872 8.38001 86.4267 8.27416C86.2696 8.16832 86.0682 8.1154 85.8223 8.1154Z" fill="#808080"/>
<path d="M92.844 7.00403C92.9225 7.00403 93.013 7.00915 93.1154 7.01939C93.2212 7.02622 93.3066 7.03646 93.3715 7.05012L93.2537 8.51488C93.2025 8.4978 93.1291 8.48585 93.0335 8.47902C92.9413 8.46878 92.861 8.46366 92.7927 8.46366C92.5913 8.46366 92.395 8.48927 92.2038 8.54048C92.016 8.5917 91.847 8.67535 91.6967 8.79144C91.5465 8.90411 91.427 9.05434 91.3382 9.24213C91.2529 9.42651 91.2102 9.65356 91.2102 9.9233V12.8374H89.6481V7.11158H90.8312L91.0617 8.07442H91.1385C91.2512 7.87981 91.3911 7.70226 91.5584 7.54179C91.7292 7.3779 91.9221 7.24815 92.1372 7.15255C92.3557 7.05353 92.5913 7.00403 92.844 7.00403Z" fill="#808080"/>
<path d="M96.7722 7.00403C97.3014 7.00403 97.7572 7.10646 98.1396 7.31132C98.522 7.51276 98.8174 7.8064 99.0256 8.19222C99.2339 8.57804 99.3381 9.04922 99.3381 9.60576V10.3637H95.6454C95.6625 10.8042 95.794 11.1508 96.0398 11.4034C96.289 11.6527 96.6339 11.7773 97.0743 11.7773C97.4397 11.7773 97.7743 11.7397 98.0782 11.6646C98.382 11.5895 98.6944 11.4768 99.0154 11.3266V12.5353C98.732 12.6753 98.435 12.7777 98.1242 12.8426C97.817 12.9074 97.4431 12.9399 97.0026 12.9399C96.429 12.9399 95.9203 12.834 95.4764 12.6223C95.036 12.4107 94.6894 12.088 94.4367 11.6544C94.1875 11.2207 94.0629 10.6745 94.0629 10.0155C94.0629 9.34627 94.1756 8.78973 94.4009 8.34587C94.6297 7.89859 94.9472 7.56398 95.3535 7.34205C95.7598 7.1167 96.2327 7.00403 96.7722 7.00403ZM96.7824 8.1154C96.4785 8.1154 96.2259 8.21271 96.0244 8.40732C95.8264 8.60194 95.712 8.90753 95.6813 9.32408H97.8733C97.8699 9.0919 97.8272 8.88533 97.7453 8.70437C97.6667 8.52341 97.5472 8.38001 97.3868 8.27416C97.2297 8.16832 97.0282 8.1154 96.7824 8.1154Z" fill="#808080"/>
<path d="M103.86 7.00403C104.472 7.00403 104.963 7.17133 105.335 7.50593C105.708 7.83713 105.894 8.36977 105.894 9.10385V12.8374H104.332V9.49309C104.332 9.08337 104.256 8.77437 104.106 8.56609C103.959 8.35782 103.727 8.25368 103.41 8.25368C102.932 8.25368 102.606 8.41586 102.431 8.74022C102.257 9.06459 102.17 9.53235 102.17 10.1435V12.8374H100.608V7.11158H101.802L102.011 7.84396H102.099C102.221 7.64592 102.373 7.48545 102.554 7.36253C102.739 7.23962 102.942 7.14914 103.164 7.09109C103.389 7.03305 103.621 7.00403 103.86 7.00403Z" fill="#808080"/>
<path d="M109.827 12.9399C109.26 12.9399 108.777 12.8374 108.378 12.6326C107.978 12.4243 107.674 12.1034 107.466 11.6697C107.258 11.2361 107.154 10.6813 107.154 10.0052C107.154 9.3053 107.271 8.7351 107.507 8.29465C107.746 7.85078 108.075 7.52471 108.495 7.31644C108.919 7.10816 109.409 7.00403 109.965 7.00403C110.361 7.00403 110.703 7.04329 110.99 7.12182C111.28 7.19694 111.532 7.28742 111.748 7.39326L111.287 8.60194C111.041 8.50293 110.812 8.42269 110.6 8.36123C110.389 8.29636 110.177 8.26392 109.965 8.26392C109.692 8.26392 109.465 8.32879 109.284 8.45854C109.103 8.58487 108.968 8.77607 108.879 9.03215C108.791 9.28823 108.746 9.60918 108.746 9.995C108.746 10.374 108.794 10.6881 108.89 10.9374C108.985 11.1866 109.124 11.3727 109.305 11.4956C109.486 11.6151 109.706 11.6749 109.965 11.6749C110.29 11.6749 110.578 11.6322 110.831 11.5468C111.083 11.458 111.329 11.3351 111.568 11.1781V12.5148C111.329 12.665 111.078 12.7726 110.815 12.8374C110.556 12.9057 110.226 12.9399 109.827 12.9399Z" fill="#808080"/>
<path d="M114.462 7.11158V12.8374H112.9V7.11158H114.462ZM113.683 4.86835C113.916 4.86835 114.115 4.92298 114.283 5.03224C114.45 5.13808 114.534 5.33782 114.534 5.63146C114.534 5.92168 114.45 6.12312 114.283 6.2358C114.115 6.34506 113.916 6.39969 113.683 6.39969C113.448 6.39969 113.246 6.34506 113.079 6.2358C112.915 6.12312 112.833 5.92168 112.833 5.63146C112.833 5.33782 112.915 5.13808 113.079 5.03224C113.246 4.92298 113.448 4.86835 113.683 4.86835Z" fill="#808080"/>
<path d="M118.452 6.99378C119.22 6.99378 119.809 7.16109 120.219 7.49569C120.628 7.8303 120.833 8.33904 120.833 9.02191V12.8374H119.742L119.44 12.059H119.399C119.235 12.2638 119.068 12.4311 118.897 12.5609C118.726 12.6906 118.53 12.7862 118.308 12.8477C118.086 12.9091 117.817 12.9399 117.499 12.9399C117.161 12.9399 116.857 12.875 116.587 12.7453C116.321 12.6155 116.111 12.4175 115.957 12.1512C115.804 11.8814 115.727 11.54 115.727 11.1269C115.727 10.5191 115.94 10.0718 116.367 9.78501C116.794 9.49479 117.434 9.33432 118.288 9.30359L119.281 9.27286V9.02191C119.281 8.72144 119.203 8.50122 119.046 8.36123C118.889 8.22124 118.67 8.15125 118.39 8.15125C118.114 8.15125 117.842 8.19051 117.576 8.26904C117.309 8.34757 117.043 8.44659 116.777 8.56609L116.26 7.51106C116.563 7.35058 116.903 7.22425 117.279 7.13206C117.658 7.03988 118.049 6.99378 118.452 6.99378ZM119.281 10.1845L118.677 10.205C118.172 10.2186 117.82 10.3091 117.622 10.4764C117.427 10.6437 117.33 10.8639 117.33 11.1371C117.33 11.3761 117.4 11.5468 117.54 11.6493C117.68 11.7483 117.863 11.7978 118.088 11.7978C118.423 11.7978 118.704 11.6988 118.933 11.5007C119.165 11.3027 119.281 11.021 119.281 10.6557V10.1845Z" fill="#808080"/>
<path d="M50.7148 18.5989H53.0451C54.0421 18.5989 54.7966 18.7389 55.3088 19.0189C55.8209 19.2988 56.077 19.7905 56.077 20.4939C56.077 20.7773 56.0309 21.0333 55.9387 21.2621C55.85 21.4909 55.7202 21.6786 55.5495 21.8255C55.3788 21.9723 55.1705 22.0679 54.9247 22.1123V22.1635C55.1739 22.2147 55.3993 22.3035 55.6007 22.4298C55.8022 22.5527 55.9626 22.7337 56.0821 22.9727C56.2051 23.2083 56.2665 23.5224 56.2665 23.915C56.2665 24.3692 56.1555 24.7584 55.9336 25.0828C55.7117 25.4071 55.3941 25.6564 54.981 25.8305C54.5713 26.0012 54.083 26.0866 53.5162 26.0866H50.7148V18.5989ZM52.3024 21.5643H53.2243C53.6853 21.5643 54.0045 21.4926 54.182 21.3492C54.3596 21.2023 54.4484 20.9872 54.4484 20.7038C54.4484 20.417 54.3425 20.2122 54.1308 20.0893C53.9226 19.9629 53.5914 19.8998 53.1373 19.8998H52.3024V21.5643ZM52.3024 22.8242V24.7755H53.337C53.815 24.7755 54.1479 24.6833 54.3357 24.4989C54.5235 24.3145 54.6174 24.067 54.6174 23.7563C54.6174 23.5719 54.5764 23.4097 54.4945 23.2697C54.4125 23.1297 54.2742 23.0205 54.0796 22.942C53.8884 22.8634 53.6238 22.8242 53.2858 22.8242H52.3024Z" fill="#808080"/>
<path d="M59.9847 20.2429C60.753 20.2429 61.3419 20.4102 61.7517 20.7448C62.1614 21.0794 62.3662 21.5882 62.3662 22.271V26.0866H61.2754L60.9732 25.3081H60.9322C60.7683 25.513 60.601 25.6803 60.4303 25.81C60.2596 25.9398 60.0633 26.0354 59.8413 26.0968C59.6194 26.1583 59.3497 26.189 59.0321 26.189C58.6941 26.189 58.3902 26.1241 58.1205 25.9944C57.8542 25.8646 57.6442 25.6666 57.4906 25.4003C57.3369 25.1306 57.2601 24.7891 57.2601 24.376C57.2601 23.7682 57.4735 23.3209 57.9003 23.0341C58.3271 22.7439 58.9673 22.5834 59.8208 22.5527L60.8144 22.522V22.271C60.8144 21.9706 60.7359 21.7503 60.5788 21.6104C60.4218 21.4704 60.2033 21.4004 59.9233 21.4004C59.6467 21.4004 59.3753 21.4396 59.109 21.5182C58.8426 21.5967 58.5763 21.6957 58.31 21.8152L57.7927 20.7602C58.0966 20.5997 58.4363 20.4734 58.8119 20.3812C59.1909 20.289 59.5818 20.2429 59.9847 20.2429ZM60.8144 23.4336L60.2101 23.4541C59.7048 23.4678 59.3531 23.5582 59.155 23.7256C58.9604 23.8929 58.8631 24.1131 58.8631 24.3862C58.8631 24.6252 58.9331 24.7959 59.0731 24.8984C59.2131 24.9974 59.3958 25.0469 59.6211 25.0469C59.9557 25.0469 60.2374 24.9479 60.4662 24.7499C60.6983 24.5518 60.8144 24.2701 60.8144 23.9048V23.4336Z" fill="#808080"/>
<path d="M67.2317 20.2532C67.8429 20.2532 68.3345 20.4205 68.7067 20.7551C69.0789 21.0863 69.2649 21.6189 69.2649 22.353V26.0866H67.7029V22.7422C67.7029 22.3325 67.6278 22.0235 67.4775 21.8152C67.3307 21.6069 67.0985 21.5028 66.781 21.5028C66.303 21.5028 65.9769 21.665 65.8028 21.9894C65.6287 22.3137 65.5416 22.7815 65.5416 23.3927V26.0866H63.9795V20.3607H65.1728L65.3828 21.0931H65.4699C65.5928 20.8951 65.7447 20.7346 65.9257 20.6117C66.1101 20.4887 66.3132 20.3983 66.5352 20.3402C66.7605 20.2822 66.9927 20.2532 67.2317 20.2532Z" fill="#808080"/>
<path d="M73.1983 26.189C72.6315 26.189 72.1484 26.0866 71.7489 25.8817C71.3494 25.6734 71.0455 25.3525 70.8373 24.9189C70.629 24.4852 70.5248 23.9304 70.5248 23.2544C70.5248 22.5544 70.6426 21.9842 70.8782 21.5438C71.1172 21.0999 71.4467 20.7738 71.8667 20.5656C72.2901 20.3573 72.78 20.2532 73.3366 20.2532C73.7326 20.2532 74.0741 20.2924 74.3609 20.3709C74.6511 20.4461 74.9037 20.5365 75.1188 20.6424L74.6579 21.8511C74.4121 21.7521 74.1833 21.6718 73.9716 21.6104C73.7599 21.5455 73.5482 21.5131 73.3366 21.5131C73.0634 21.5131 72.8364 21.5779 72.6554 21.7077C72.4744 21.834 72.3396 22.0252 72.2508 22.2813C72.162 22.5374 72.1176 22.8583 72.1176 23.2441C72.1176 23.6231 72.1654 23.9372 72.261 24.1865C72.3566 24.4357 72.4949 24.6218 72.6759 24.7447C72.8568 24.8642 73.0771 24.924 73.3366 24.924C73.6609 24.924 73.9494 24.8813 74.2021 24.7959C74.4548 24.7072 74.7006 24.5843 74.9396 24.4272V25.7639C74.7006 25.9142 74.4496 26.0217 74.1867 26.0866C73.9272 26.1549 73.5978 26.189 73.1983 26.189Z" fill="#808080"/>
<path d="M78.6168 20.2429C79.3851 20.2429 79.9741 20.4102 80.3838 20.7448C80.7935 21.0794 80.9984 21.5882 80.9984 22.271V26.0866H79.9075L79.6053 25.3081H79.5643C79.4004 25.513 79.2331 25.6803 79.0624 25.81C78.8917 25.9398 78.6954 26.0354 78.4734 26.0968C78.2515 26.1583 77.9818 26.189 77.6642 26.189C77.3262 26.189 77.0223 26.1241 76.7526 25.9944C76.4863 25.8646 76.2763 25.6666 76.1227 25.4003C75.969 25.1306 75.8922 24.7891 75.8922 24.376C75.8922 23.7682 76.1056 23.3209 76.5324 23.0341C76.9592 22.7439 77.5994 22.5834 78.453 22.5527L79.4465 22.522V22.271C79.4465 21.9706 79.368 21.7503 79.2109 21.6104C79.0539 21.4704 78.8354 21.4004 78.5554 21.4004C78.2788 21.4004 78.0074 21.4396 77.7411 21.5182C77.4748 21.5967 77.2084 21.6957 76.9421 21.8152L76.4248 20.7602C76.7287 20.5997 77.0684 20.4734 77.444 20.3812C77.823 20.289 78.214 20.2429 78.6168 20.2429ZM79.4465 23.4336L78.8422 23.4541C78.3369 23.4678 77.9852 23.5582 77.7872 23.7256C77.5925 23.8929 77.4952 24.1131 77.4952 24.3862C77.4952 24.6252 77.5652 24.7959 77.7052 24.8984C77.8452 24.9974 78.0279 25.0469 78.2532 25.0469C78.5878 25.0469 78.8695 24.9479 79.0983 24.7499C79.3304 24.5518 79.4465 24.2701 79.4465 23.9048V23.4336Z" fill="#808080"/>
<path d="M85.8075 20.2532C85.886 20.2532 85.9765 20.2583 86.0789 20.2685C86.1848 20.2753 86.2701 20.2856 86.335 20.2992L86.2172 21.764C86.166 21.7469 86.0926 21.735 85.997 21.7282C85.9048 21.7179 85.8245 21.7128 85.7563 21.7128C85.5548 21.7128 85.3585 21.7384 85.1673 21.7896C84.9795 21.8408 84.8105 21.9245 84.6602 22.0406C84.51 22.1532 84.3905 22.3035 84.3017 22.4913C84.2164 22.6756 84.1737 22.9027 84.1737 23.1724V26.0866H82.6116V20.3607H83.7947L84.0252 21.3236H84.102C84.2147 21.1289 84.3547 20.9514 84.522 20.7909C84.6927 20.627 84.8856 20.4973 85.1007 20.4017C85.3192 20.3027 85.5548 20.2532 85.8075 20.2532Z" fill="#808080"/>
<path d="M88.9367 20.3607V26.0866H87.3747V20.3607H88.9367ZM88.1583 18.1175C88.3904 18.1175 88.5902 18.1721 88.7575 18.2814C88.9248 18.3872 89.0084 18.587 89.0084 18.8806C89.0084 19.1708 88.9248 19.3723 88.7575 19.4849C88.5902 19.5942 88.3904 19.6488 88.1583 19.6488C87.9227 19.6488 87.7212 19.5942 87.5539 19.4849C87.39 19.3723 87.3081 19.1708 87.3081 18.8806C87.3081 18.587 87.39 18.3872 87.5539 18.2814C87.7212 18.1721 87.9227 18.1175 88.1583 18.1175Z" fill="#808080"/>
<path d="M92.9264 20.2429C93.6946 20.2429 94.2836 20.4102 94.6933 20.7448C95.103 21.0794 95.3079 21.5882 95.3079 22.271V26.0866H94.217L93.9148 25.3081H93.8739C93.71 25.513 93.5427 25.6803 93.372 25.81C93.2012 25.9398 93.0049 26.0354 92.783 26.0968C92.5611 26.1583 92.2913 26.189 91.9738 26.189C91.6358 26.189 91.3319 26.1241 91.0622 25.9944C90.7958 25.8646 90.5859 25.6666 90.4322 25.4003C90.2786 25.1306 90.2017 24.7891 90.2017 24.376C90.2017 23.7682 90.4151 23.3209 90.8419 23.0341C91.2687 22.7439 91.9089 22.5834 92.7625 22.5527L93.7561 22.522V22.271C93.7561 21.9706 93.6776 21.7503 93.5205 21.6104C93.3634 21.4704 93.1449 21.4004 92.8649 21.4004C92.5884 21.4004 92.3169 21.4396 92.0506 21.5182C91.7843 21.5967 91.518 21.6957 91.2517 21.8152L90.7344 20.7602C91.0383 20.5997 91.378 20.4734 91.7536 20.3812C92.1326 20.289 92.5235 20.2429 92.9264 20.2429ZM93.7561 23.4336L93.1517 23.4541C92.6464 23.4678 92.2947 23.5582 92.0967 23.7256C91.9021 23.8929 91.8048 24.1131 91.8048 24.3862C91.8048 24.6252 91.8748 24.7959 92.0148 24.8984C92.1548 24.9974 92.3374 25.0469 92.5628 25.0469C92.8974 25.0469 93.1791 24.9479 93.4078 24.7499C93.64 24.5518 93.7561 24.2701 93.7561 23.9048V23.4336Z" fill="#808080"/>
</svg>
