<svg width="95" height="31" viewBox="0 0 95 31" fill="none" xmlns="http://www.w3.org/2000/svg">
<g clip-path="url(#clip0_8848_83838)">
<path d="M5.81332 25.89C6.09918 25.89 6.33111 25.6656 6.33111 25.3886C6.33111 25.1116 6.09918 24.8867 5.81332 24.8867C5.52824 24.8867 5.29626 25.1116 5.29626 25.3886C5.29626 25.6656 5.52824 25.89 5.81332 25.89Z" fill="#808080"/>
<path d="M45.8622 29.8205C46.1481 29.8205 46.38 29.596 46.38 29.3193C46.38 29.0421 46.1481 28.8171 45.8622 28.8171C45.5768 28.8171 45.3453 29.0421 45.3453 29.3193C45.3453 29.596 45.5768 29.8205 45.8622 29.8205Z" fill="#808080"/>
<path d="M21.3635 26.782L21.3633 26.7803C21.3621 26.2212 21.1606 25.7496 20.7946 25.431L20.7688 25.4088L20.763 25.4037H20.7617C20.4174 25.1191 19.9513 24.969 19.3985 24.964C19.3964 24.9635 19.3918 24.9634 19.3865 24.9634C19.3814 24.9634 19.3762 24.9635 19.371 24.9642L19.367 24.964C19.3505 24.964 19.3392 24.9643 19.3311 24.9647C19.3246 24.9643 19.3143 24.964 19.3021 24.964L19.2938 24.9642C19.2896 24.9637 19.2843 24.9634 19.2775 24.9634H19.2756C19.2762 24.9634 19.2746 24.9634 19.2727 24.9634C19.2699 24.9634 19.2661 24.9634 19.2621 24.964C18.7106 24.9697 18.246 25.1193 17.9028 25.4037H17.9012L17.8698 25.431C17.5052 25.7483 17.3036 26.2176 17.301 26.7738L17.3007 26.7744L17.3002 26.7766L17.2974 29.6555C17.2974 29.694 17.3144 29.7318 17.3442 29.7585C17.374 29.7858 17.4158 29.8016 17.4577 29.8016H17.99C18.0319 29.8016 18.0731 29.7858 18.1033 29.7585C18.1335 29.7318 18.1501 29.694 18.1501 29.6555L18.1514 26.8737C18.1546 26.4661 18.2628 26.1773 18.4584 25.9864C18.6476 25.8015 18.9366 25.6971 19.3343 25.6897C19.7283 25.6971 20.0168 25.8015 20.2062 25.9864C20.4015 26.1773 20.5098 26.4661 20.5131 26.8746L20.5124 29.6555C20.5124 29.694 20.5294 29.7318 20.5593 29.7585C20.5892 29.7858 20.6308 29.8016 20.6728 29.8016H21.2058C21.2478 29.8016 21.2892 29.7858 21.3192 29.7585C21.3496 29.7318 21.3662 29.694 21.3662 29.6555L21.3635 26.782Z" fill="#808080"/>
<path d="M39.9216 26.782L39.9214 26.7803C39.9203 26.2212 39.7187 25.7496 39.3527 25.431L39.327 25.4088L39.3211 25.4037H39.3198C38.9756 25.1191 38.5095 24.969 37.9566 24.964C37.9545 24.9635 37.9499 24.9634 37.9446 24.9634C37.9396 24.9634 37.9343 24.9635 37.9292 24.9642L37.9251 24.964C37.9085 24.964 37.8974 24.9643 37.8893 24.9647C37.8828 24.9643 37.8724 24.964 37.8603 24.964L37.852 24.9642C37.8477 24.9637 37.8424 24.9634 37.8357 24.9634H37.8337C37.8345 24.9634 37.8327 24.9634 37.8308 24.9634C37.828 24.9634 37.8242 24.9634 37.8202 24.964C37.2686 24.9697 36.8041 25.1193 36.4609 25.4037H36.4592L36.4278 25.431C36.0633 25.7483 35.8618 26.2176 35.8591 26.7738L35.8589 26.7744L35.8583 26.7766L35.8555 29.6555C35.8555 29.694 35.8725 29.7318 35.9023 29.7585C35.932 29.7858 35.9739 29.8016 36.0158 29.8016H36.5481C36.59 29.8016 36.6312 29.7858 36.6614 29.7585C36.6916 29.7318 36.7082 29.694 36.7082 29.6555L36.7094 26.8737C36.7127 26.4661 36.8209 26.1773 37.0164 25.9864C37.2057 25.8015 37.4947 25.6971 37.8925 25.6897C38.2864 25.6971 38.575 25.8015 38.7644 25.9864C38.9595 26.1773 39.0679 26.4661 39.0713 26.8746L39.0705 29.6555C39.0705 29.694 39.0876 29.7318 39.1173 29.7585C39.1474 29.7858 39.1889 29.8016 39.2309 29.8016H39.7639C39.8059 29.8016 39.8473 29.7858 39.8773 29.7585C39.9076 29.7318 39.9242 29.694 39.9242 29.6555L39.9216 26.782Z" fill="#808080"/>
<path d="M29.9703 27.3957V27.4059V27.407V27.4176C29.9691 27.876 29.9185 28.324 29.7374 28.6447C29.5594 28.9532 29.2731 29.1592 28.7172 29.1673C28.7135 29.1669 28.7077 29.1669 28.6964 29.1673H28.6872C28.1275 29.1618 27.8374 28.9555 27.6586 28.6442C27.4759 28.3223 27.4248 27.8706 27.4248 27.4092V27.3814C27.4252 26.9231 27.4759 26.5553 27.6586 26.2349C27.8374 25.9235 28.1275 25.7169 28.6872 25.7119H28.691H28.7001H28.7086C29.2687 25.7169 29.5577 25.9231 29.738 26.2354C29.9195 26.5553 29.9703 26.9231 29.9703 27.3814V27.3957ZM30.1279 25.4548C30.1251 25.4516 30.1223 25.4482 30.1184 25.4449C29.8152 25.1758 29.3304 25.009 28.7689 25.0084C28.7613 25.0075 28.7496 25.0075 28.7386 25.0075C28.2767 25.0073 27.8212 25.1002 27.4252 25.4266L27.4248 25.4268V25.1404H27.4256V23.6897C27.4256 23.6515 27.4086 23.6139 27.3787 23.587C27.3489 23.56 27.3074 23.5442 27.2652 23.5442H26.7407C26.699 23.5442 26.6576 23.56 26.6274 23.587C26.5971 23.6139 26.5806 23.6515 26.5806 23.6897V25.1404H26.581V28.2202H26.5806V29.6631C26.5806 29.7013 26.5978 29.739 26.6274 29.7656C26.6574 29.7928 26.699 29.8084 26.7411 29.8084H27.2655C27.3074 29.8084 27.3487 29.7928 27.3787 29.7656C27.4092 29.739 27.4258 29.7013 27.4258 29.6631V29.3648C27.7757 29.7415 28.278 29.8714 28.7386 29.8712H28.7711C29.3314 29.8694 29.8163 29.7028 30.1184 29.4339C30.6834 28.919 30.8126 28.1296 30.8144 27.3959C30.8128 26.6661 30.6834 25.9678 30.1279 25.4548Z" fill="#808080"/>
<path d="M15.8236 28.0523C15.8223 28.4374 15.7348 28.6502 15.6172 28.7494C15.3335 29.0013 14.9824 29.0392 14.5546 29.04H14.55H14.542C14.13 29.0406 13.8593 28.9717 13.7058 28.8647C13.5601 28.7632 13.4849 28.6182 13.4812 28.3686V28.3572C13.484 28.1096 13.5621 27.9549 13.7095 27.846C13.8638 27.7329 14.1235 27.6596 14.5125 27.6596H14.5158H15.8236V28.0523ZM16.7041 26.5683V26.5649C16.7044 26.0768 16.5357 25.6582 16.182 25.3786C15.8258 25.0969 15.3147 24.9645 14.6565 24.9644H14.6329H14.6239C13.933 24.9624 13.3841 25.1073 12.9662 25.5353L12.9646 25.5338L12.9407 25.5613C12.9093 25.5948 12.8785 25.6293 12.8486 25.6663C12.8486 25.6663 12.848 25.6671 12.8478 25.6674L12.805 25.7163C12.7795 25.7454 12.7669 25.7846 12.7722 25.824C12.7766 25.8638 12.7975 25.9019 12.8294 25.9282L12.8535 25.9484C12.8628 25.9591 12.8729 25.969 12.8843 25.9782L12.9778 26.052L13.2264 26.2591C13.2582 26.2858 13.3001 26.3001 13.3409 26.2981C13.3812 26.2965 13.4193 26.2788 13.4447 26.2495L13.6045 26.067H13.6043C13.7036 25.963 13.806 25.8892 13.9295 25.8373C14.1038 25.7635 14.3277 25.7292 14.6509 25.7262H14.6548L14.6657 25.7256C15.1255 25.7268 15.4116 25.8168 15.5754 25.9551C15.7388 26.0914 15.8218 26.2971 15.823 26.6171C15.823 26.6193 15.823 26.6249 15.8236 26.6321V26.9338H14.4583C13.9074 26.935 13.4468 27.0549 13.1142 27.3045C12.784 27.5487 12.5998 27.9247 12.5996 28.3625L12.5998 28.3791C12.6007 28.7439 12.743 29.1017 13.0017 29.3502C13.3512 29.6818 13.8167 29.8023 14.5201 29.8023H14.528H14.8845C15.5286 29.8029 15.9907 29.6496 16.2883 29.3406C16.5854 29.0316 16.7044 28.5848 16.7044 28.0291V26.5767L16.7041 26.5683Z" fill="#808080"/>
<path d="M32.0451 28.3743V28.363C32.0476 28.1156 32.1259 27.961 32.2733 27.8524C32.4276 27.7391 32.6874 27.6659 33.0762 27.6659H33.0797H34.3874V28.0582C34.3862 28.4432 34.2987 28.6558 34.181 28.7551C33.8974 29.0067 33.5462 29.0446 33.1183 29.0455H33.1135H33.1059C32.6937 29.0459 32.4232 28.9773 32.2697 28.8701C32.1238 28.7687 32.0487 28.624 32.0451 28.3743ZM35.268 26.5751V26.5718C35.2682 26.0839 35.0995 25.6657 34.7457 25.3862C34.3898 25.1047 33.8785 24.9724 33.2206 24.9722H33.1967H33.1878C32.4966 24.9705 31.9479 25.1151 31.5302 25.5428L31.5285 25.5414L31.5045 25.5689C31.4731 25.6023 31.4422 25.6371 31.4122 25.6738C31.412 25.6742 31.4119 25.6745 31.4117 25.675L31.3689 25.7237C31.3433 25.7528 31.3307 25.792 31.336 25.8315C31.3405 25.8711 31.3614 25.9092 31.3932 25.9357L31.4173 25.9558C31.4266 25.9664 31.4368 25.9763 31.4481 25.9855L31.5416 26.0593L31.7902 26.2662C31.822 26.2927 31.864 26.3072 31.9046 26.3052C31.9451 26.3036 31.983 26.2858 32.0086 26.2566L32.1681 26.0743V26.0741C32.2676 25.9702 32.3698 25.8964 32.4933 25.8445C32.6678 25.771 32.8916 25.7364 33.2147 25.7337L33.2186 25.7335L33.2296 25.7331C33.6894 25.7341 33.9755 25.8243 34.1393 25.9624C34.3028 26.0985 34.3854 26.3042 34.3868 26.624C34.3868 26.6261 34.3868 26.6318 34.3874 26.639V26.9406H33.0221C32.4713 26.9417 32.0106 27.0614 31.6781 27.3111C31.3478 27.5551 31.1637 27.9308 31.1635 28.3684L31.1637 28.385C31.1645 28.7497 31.3068 29.107 31.5655 29.3553C31.9151 29.6867 32.3806 29.8072 33.084 29.8072H33.0918H33.4483C34.0925 29.8078 34.5544 29.6545 34.8522 29.3457C35.1492 29.0371 35.2682 28.5905 35.2682 28.0352V26.5835L35.268 26.5751Z" fill="#808080"/>
<path d="M8.50107 24.9815H7.60169L7.60132 24.1038H7.6009L7.6007 23.6792C7.6007 23.603 7.53136 23.5408 7.4458 23.5408H6.90507C6.86433 23.5408 6.82417 23.5553 6.79579 23.5811C6.76678 23.6071 6.74976 23.643 6.74976 23.6792V24.4617H6.75017V28.5755C6.75055 28.9097 6.85051 29.2106 7.07029 29.4385C7.27971 29.6591 7.61913 29.7967 8.01128 29.7967H8.0127H8.27322V29.7936H8.50107C8.54065 29.7936 8.57936 29.777 8.60698 29.7481C8.63512 29.7192 8.65114 29.679 8.65114 29.6381V29.1295C8.65114 29.0889 8.63512 29.0488 8.60698 29.0196C8.57936 28.9904 8.54065 28.9742 8.50107 28.9742H8.08308C7.99847 28.971 7.93055 28.9611 7.87137 28.941C7.83363 28.9285 7.81032 28.9145 7.78864 28.9012C7.76471 28.885 7.75151 28.8772 7.72804 28.8535C7.64751 28.7725 7.60294 28.6443 7.60169 28.4531V25.8011H8.50107C8.54065 25.8011 8.57936 25.7845 8.60698 25.7556C8.63512 25.7265 8.65114 25.6863 8.65114 25.6456V25.1369C8.65114 25.0963 8.63512 25.0562 8.60698 25.027C8.57936 24.9977 8.54065 24.9815 8.50107 24.9815Z" fill="#808080"/>
<path d="M12.3796 25.5823L12.3298 25.5288C12.3277 25.5226 12.3241 25.5168 12.318 25.5107L12.2878 25.4808L12.288 25.4807L12.2464 25.4394L12.2123 25.4029L12.211 25.4044C11.905 25.0944 11.5242 24.9638 11.1188 24.9634C11.1105 24.9634 11.1007 24.9636 11.087 24.9638C10.799 24.9638 10.4592 25.0884 10.2552 25.3247L10.1147 25.4854V25.4182V25.1262C10.1147 25.0879 10.0977 25.0502 10.0679 25.0237C10.0379 24.9964 9.99631 24.9807 9.95411 24.9807H9.42999C9.38788 24.9807 9.34647 24.9964 9.31647 25.0237C9.28629 25.0502 9.26965 25.0879 9.26965 25.1262V25.4182V29.6576C9.26965 29.6961 9.28667 29.7336 9.31647 29.7603C9.34627 29.7876 9.38788 29.8032 9.42999 29.8032H9.52043C9.52328 29.8034 9.52631 29.804 9.52916 29.804H9.85947C9.8625 29.804 9.86535 29.8034 9.86837 29.8032H9.95438C9.99631 29.8032 10.0376 29.7876 10.0679 29.7603C10.0981 29.7336 10.1147 29.6961 10.1147 29.6576V29.5791C10.1147 29.5782 10.1149 29.5771 10.1149 29.5762V26.8878C10.1149 26.8843 10.1147 26.881 10.1147 26.8775V26.6598C10.1306 26.41 10.2128 26.1849 10.3479 26.0215C10.4927 25.8471 10.7048 25.7338 10.9908 25.733C11.1423 25.733 11.2418 25.7504 11.328 25.785C11.4111 25.8198 11.4959 25.8796 11.6072 25.9901L11.6324 26.0151L11.7463 26.1372C11.7731 26.1662 11.8121 26.1831 11.8534 26.1835C11.8947 26.1844 11.9367 26.1687 11.9683 26.141L12.3612 25.7967C12.3926 25.7692 12.4127 25.7304 12.4162 25.6899C12.4202 25.65 12.4064 25.611 12.3796 25.5823Z" fill="#808080"/>
<path d="M25.5898 27.3243C25.5877 27.3226 25.5852 27.3215 25.5834 27.3202H25.5828C25.2767 27.1144 24.889 27.0428 24.4715 27.0084L23.6889 26.945C23.3633 26.9187 23.1616 26.8534 23.0444 26.7648C22.945 26.6919 22.8834 26.5741 22.8816 26.3932V26.3891H22.8809L22.8816 26.3797C22.8834 26.1657 22.9698 26.01 23.1233 25.9044C23.2869 25.7908 23.5492 25.7184 23.9202 25.718H23.9233H23.9239C24.3973 25.7188 24.7888 25.8251 25.1155 26.0272L25.115 26.0278L25.3136 26.1619C25.3453 26.1834 25.3858 26.1914 25.4247 26.1826C25.4642 26.1744 25.5001 26.1508 25.5236 26.118L25.816 25.7077C25.8395 25.6747 25.8497 25.6333 25.844 25.5948C25.8409 25.5736 25.8324 25.5537 25.8203 25.5363C25.8095 25.5164 25.7941 25.4985 25.7738 25.4846L25.7402 25.4614C25.2736 25.1412 24.623 24.9616 23.9217 24.9607C23.3601 24.9609 22.8809 25.0908 22.5333 25.3397C22.1883 25.5845 21.9856 25.9546 21.9854 26.3758L21.9856 26.3817V26.3845L21.9854 26.3957C21.9854 26.7682 22.1287 27.0972 22.415 27.3215C22.7042 27.5494 23.1113 27.6707 23.624 27.7106L24.4283 27.7732C24.7232 27.7992 24.9075 27.8622 25.0159 27.9496C25.1106 28.0237 25.171 28.141 25.1717 28.328V28.3381V28.3396C25.1694 28.5754 25.0709 28.738 24.8868 28.8509C24.6893 28.9715 24.3681 29.0453 23.9217 29.0453H23.9186C23.917 29.0453 23.9142 29.0455 23.9103 29.0459H23.9062C23.3173 29.0431 22.8986 28.9156 22.5727 28.6564L22.4031 28.5184C22.3726 28.4935 22.3323 28.4818 22.2915 28.487C22.2508 28.4921 22.2118 28.5128 22.1849 28.5442L21.8481 28.9362C21.8209 28.9676 21.8067 29.0088 21.8092 29.0486C21.811 29.0881 21.8299 29.1251 21.8603 29.1497L22.0201 29.2799L22.0194 29.2807C22.0227 29.283 22.0259 29.285 22.0291 29.2874L22.0499 29.3042L22.0513 29.3026C22.5458 29.6473 23.163 29.8122 23.9186 29.8122H23.9321C24.5551 29.8116 25.0808 29.6816 25.4644 29.4267C25.8436 29.1753 26.0697 28.7872 26.069 28.3396V28.3173C26.0698 27.8661 25.8882 27.526 25.5898 27.3243Z" fill="#808080"/>
<path d="M44.8967 29.6001L44.2406 28.7087L42.926 26.8606L43.9476 25.8159L44.5425 25.2106L44.5786 25.172C44.6473 25.1055 44.6137 25.0362 44.5839 25.0095C44.5541 24.9823 44.5125 24.9665 44.4704 24.9665H43.7873C43.7467 24.9665 43.694 24.9967 43.6642 25.0222C43.6636 25.0225 43.6648 25.0221 43.6642 25.0222L41.3704 27.3775V25.4093V23.6726C41.3704 23.6343 41.3532 23.5966 41.3236 23.5699C41.2936 23.5425 41.2521 23.5269 41.2099 23.5269H40.6856C40.6436 23.5269 40.6022 23.5425 40.5722 23.5699C40.5418 23.5966 40.5251 23.6343 40.5251 23.6726V25.4093V29.6567C40.5251 29.695 40.5422 29.7329 40.5721 29.7597C40.6021 29.7867 40.6436 29.8026 40.6858 29.8026H41.2101C41.2521 29.8026 41.2934 29.7867 41.3236 29.7597C41.3539 29.7329 41.3704 29.695 41.3704 29.6567V28.4487L42.3641 27.4119L43.0329 28.3753H43.03L43.9701 29.728C43.9923 29.7581 44.0269 29.8057 44.1053 29.8057H44.7884C44.8306 29.8057 44.8722 29.7899 44.902 29.7626C44.9318 29.7358 44.9515 29.6667 44.8967 29.6001Z" fill="#808080"/>
<path d="M39.0242 23.5728H39.1168L39.2545 23.9629L39.3923 23.5728H39.4838V24.0344H39.4221V23.7613C39.4221 23.7518 39.4226 23.7373 39.4226 23.7147C39.4226 23.6928 39.424 23.6706 39.424 23.645L39.2866 24.0344H39.2218L39.0846 23.645V23.6586V23.71C39.0856 23.7344 39.0856 23.751 39.0856 23.7613V24.0344H39.0242V23.5728Z" fill="#808080"/>
<path d="M39.9729 23.7838C40.0021 23.7838 40.0258 23.7783 40.0438 23.7664C40.0597 23.7557 40.0694 23.7344 40.0694 23.7026C40.0694 23.6706 40.0578 23.6475 40.0327 23.6354C40.0195 23.629 40.0021 23.6261 39.9812 23.6261H39.8259V23.7838H39.9729ZM39.7612 23.5728H39.9802C40.016 23.5728 40.0462 23.5776 40.0686 23.5882C40.1132 23.6071 40.1348 23.6435 40.1348 23.6967C40.1348 23.7242 40.13 23.7469 40.1176 23.7648C40.1048 23.7818 40.0884 23.7971 40.0668 23.8076C40.0856 23.8154 40.1011 23.8244 40.1103 23.8362C40.1191 23.8482 40.1244 23.8683 40.1244 23.895L40.128 23.9559C40.128 23.9742 40.1304 23.9872 40.1322 23.9959C40.1367 24.0096 40.1435 24.0192 40.1535 24.0231V24.0344H40.074C40.0718 24.0295 40.0708 24.0249 40.0686 24.0192C40.0668 24.0127 40.0663 24.0006 40.0659 23.9826L40.0615 23.9054C40.0592 23.8747 40.0489 23.8545 40.0276 23.8445C40.016 23.839 39.9956 23.8362 39.97 23.8362H39.8259V24.0344H39.7612V23.5728Z" fill="#808080"/>
<path d="M39.6247 24.032C39.6064 24.032 39.5938 24.0188 39.5938 23.9985C39.5938 23.9782 39.6068 23.9644 39.6267 23.9644C39.6455 23.9644 39.6589 23.9782 39.6589 23.9985C39.6589 24.0188 39.6455 24.032 39.6247 24.032Z" fill="#808080"/>
<path d="M40.2812 24.032C40.2623 24.032 40.2484 24.0188 40.2484 23.9985C40.2484 23.9782 40.2623 23.9644 40.282 23.9644C40.3019 23.9644 40.3149 23.9782 40.3149 23.9985C40.3149 24.0188 40.3019 24.032 40.2817 24.032H40.2812Z" fill="#808080"/>
<path d="M50.4714 12.0074V12.0377V12.0411V12.0729C50.4673 13.4427 50.3164 14.7812 49.7752 15.7391C49.2432 16.6607 48.3879 17.2763 46.7267 17.3007C46.7161 17.2992 46.6983 17.2992 46.6648 17.3007H46.6374C44.965 17.2845 44.0986 16.6676 43.5639 15.7377C43.0183 14.7758 42.8652 13.4261 42.8652 12.048V11.9648C42.8668 10.5954 43.0183 9.49674 43.5639 8.5393C44.0986 7.60877 44.965 6.99141 46.6374 6.9767H46.6485H46.6759H46.7014C48.3747 6.99141 49.238 7.60786 49.7772 8.54122C50.3189 9.49674 50.4714 10.5954 50.4714 11.9648V12.0074ZM50.9419 6.20869C50.9333 6.19891 50.9247 6.18862 50.9134 6.17884C50.0079 5.37456 48.5597 4.87655 46.8812 4.87503C46.8589 4.87214 46.8238 4.87214 46.7913 4.87214C45.4111 4.87166 44.0498 5.14904 42.8668 6.12403L42.8652 6.12499V5.26936H42.8678V0.934911C42.8678 0.820444 42.817 0.7079 42.728 0.628129C42.6391 0.546917 42.5151 0.5 42.3886 0.5H40.8215C40.6969 0.5 40.5734 0.546917 40.483 0.628129C40.393 0.7079 40.3433 0.820444 40.3433 0.934911V5.26936H40.3442V14.4711H40.3433V18.782C40.3433 18.8965 40.3945 19.0091 40.483 19.0883C40.573 19.1699 40.6969 19.2165 40.823 19.2165H42.3891C42.5151 19.2165 42.6386 19.1699 42.728 19.0883C42.819 19.0091 42.8688 18.8965 42.8688 18.782V17.8907C43.9141 19.0163 45.4147 19.4044 46.7913 19.4038H46.8878C48.5623 19.3984 50.0105 18.9005 50.9134 18.0971C52.6016 16.5585 52.9873 14.2001 52.9928 12.0078C52.9883 9.82743 52.6016 7.74139 50.9419 6.20869Z" fill="#808080"/>
<path d="M64.9069 12.3003C64.9069 13.6696 64.7545 14.7685 64.2128 15.7239C63.6736 16.6574 62.8102 17.2737 61.1369 17.2884H61.1115H61.0841H61.0729C59.4005 17.2737 58.5341 16.6563 57.9995 15.7259C57.4537 14.7685 57.3024 13.6696 57.3008 12.3003V12.2172C57.3008 10.8391 57.4537 9.48934 57.9995 8.52752C58.5341 7.59752 59.4005 6.98063 61.0729 6.96448H61.1003C61.1338 6.96597 61.1516 6.96597 61.1623 6.96448C62.8235 6.98892 63.6787 7.60437 64.2108 8.52608C64.7519 9.48393 64.9028 10.8224 64.9069 12.1922V12.224V12.2275V12.2578V12.3003ZM65.3776 18.0565C67.0371 16.5237 67.4238 14.4377 67.4284 12.2573C67.4228 10.0652 67.037 7.70666 65.3491 6.16806C64.446 5.36471 62.9978 4.86669 61.3234 4.86133H61.2268C59.8502 4.86085 58.3497 5.2488 57.3044 6.37452V5.4831C57.3044 5.36864 57.2545 5.25613 57.1636 5.17689C57.0742 5.09519 56.9508 5.04872 56.8247 5.04872H55.2585C55.1325 5.04872 55.0085 5.09519 54.9186 5.17689C54.8302 5.25613 54.7788 5.36864 54.7788 5.4831V9.79413H54.7799V18.9958H54.7788V23.3303C54.7788 23.4447 54.8287 23.5573 54.9186 23.637C55.009 23.7182 55.1325 23.7651 55.257 23.7651H56.8242C56.9508 23.7651 57.0747 23.7182 57.1636 23.637C57.2526 23.5573 57.3034 23.4447 57.3034 23.3303V18.9958H57.3008V18.1402L57.3024 18.1412C58.4853 19.1162 59.8467 19.3935 61.2268 19.393C61.2594 19.393 61.2944 19.393 61.3169 19.3901C62.9952 19.3886 64.4434 18.8906 65.3491 18.0863C65.3602 18.0765 65.3688 18.0662 65.3776 18.0565Z" fill="#808080"/>
<path d="M87.8607 20.5329C87.7229 20.8922 87.4758 21.4721 87.3109 21.8207C87.3109 21.8207 87.0127 22.4523 86.5906 22.8598C86.2041 23.2313 85.7629 23.4879 85.2656 23.6299C84.7694 23.7714 84.4432 23.7935 84.4432 23.7935C84.046 23.8201 83.4665 23.8422 83.1556 23.8422C82.8447 23.8422 82.5899 23.5287 82.5899 23.1458V22.1219C82.5899 21.7391 82.7518 21.4255 82.9488 21.4255C83.1464 21.4255 83.6314 21.393 84.0271 21.3537C84.0271 21.3537 84.3283 21.3233 84.604 21.1198C84.8801 20.9153 85.0197 20.6224 85.0197 20.6224C85.1855 20.2739 85.4301 19.6934 85.5628 19.3321L85.8523 18.5447C85.985 18.1835 85.9815 17.5937 85.8451 17.2339L81.4596 5.69427C81.3227 5.33444 81.5367 5.04004 81.9348 5.04004H83.467C83.8648 5.04004 84.2951 5.33692 84.4228 5.69964L87.2956 13.8611C87.4237 14.2244 87.6299 14.2234 87.7551 13.8597L90.5562 5.70164C90.6808 5.33741 91.1091 5.04004 91.507 5.04004H93.066C93.464 5.04004 93.6777 5.33396 93.5397 5.6937L87.8607 20.5329Z" fill="#808080"/>
<path d="M71.163 15.0526V15.0193C71.1708 14.2891 71.4021 13.8327 71.8373 13.5114C72.2925 13.1774 73.0595 12.9614 74.2079 12.9614H74.2177H78.0799V14.1198C78.0763 15.2561 77.8173 15.8842 77.4704 16.1773C76.6328 16.9202 75.5959 17.032 74.3319 17.0351H74.3183H74.2952C73.0784 17.036 72.2795 16.8336 71.8264 16.5168C71.3953 16.2176 71.174 15.79 71.163 15.0526ZM80.68 9.74038V9.73035C80.6806 8.28984 80.1825 7.05478 79.1377 6.22928C78.0867 5.3982 76.5768 5.00788 74.6342 5.00688H74.5636H74.5375C72.496 5.00179 70.8763 5.42893 69.6427 6.69167L69.6374 6.68763L69.5668 6.7692C69.4741 6.86744 69.3832 6.97017 69.2942 7.07847C69.2937 7.07946 69.2931 7.08099 69.2926 7.08199L69.1665 7.22602C69.0907 7.31217 69.0536 7.42799 69.0692 7.54434C69.0823 7.66125 69.1441 7.77356 69.2382 7.85212L69.3094 7.91154C69.3366 7.94276 69.367 7.97196 69.4003 7.99869L69.6762 8.21676L70.4106 8.82772C70.5043 8.90629 70.6283 8.94908 70.7481 8.94307C70.868 8.93854 70.9794 8.88614 71.0552 8.79951L71.5261 8.26108V8.2606C71.8201 7.95437 72.122 7.73625 72.4867 7.58265C73.0015 7.36558 73.6622 7.26381 74.617 7.25524L74.6284 7.25475L74.6604 7.25375C76.0185 7.25675 76.8634 7.52271 77.3469 7.93118C77.8293 8.33259 78.0741 8.94055 78.0778 9.88446C78.0778 9.89046 78.0778 9.9076 78.0799 9.92869V10.8193H74.0483C72.4212 10.8228 71.061 11.1764 70.0795 11.9132C69.1043 12.634 68.5602 13.7431 68.5597 15.0355L68.5602 15.0843C68.5628 16.1612 68.983 17.2164 69.7472 17.9497C70.779 18.9283 72.1539 19.284 74.2309 19.284H74.2539H75.3065C77.2088 19.286 78.5732 18.8332 79.4522 17.9215C80.3291 17.0104 80.6806 15.6913 80.6806 14.0519V9.76506L80.68 9.74038Z" fill="#808080"/>
<path d="M24.1557 5.06714C23.7396 5.06714 23.307 5.38246 23.1934 5.76708L20.4543 15.0677C20.3408 15.453 20.1415 15.4569 20.0115 15.0765L16.8259 5.75835C16.6962 5.37832 16.2498 5.06714 15.8338 5.06714H15.2624C14.8467 5.06714 14.4009 5.37841 14.2718 5.75891L11.1114 15.076C10.9822 15.4566 10.7827 15.4535 10.6686 15.0683L7.90496 5.76729C7.79052 5.38217 7.3565 5.06714 6.94041 5.06714H5.77652C5.36101 5.06714 5.12359 5.37933 5.24898 5.76091L9.47583 18.5954C9.60172 18.9764 10.0445 19.2891 10.4605 19.2891H11.2599C11.631 19.2891 12.0312 19.0119 12.1491 18.6731L15.3088 9.59502C15.4411 9.21548 15.6577 9.21548 15.791 9.59451L18.9494 18.5995C19.0828 18.9784 19.5319 19.2891 19.9474 19.2891H20.7211C21.1063 19.2891 21.516 18.9999 21.6318 18.6462L25.8482 5.76143C25.973 5.37933 25.7351 5.06714 25.3196 5.06714H24.1557Z" fill="#808080"/>
<path d="M38.5521 11.7292C38.5521 7.50799 36.2258 4.88574 32.4811 4.88574C28.6799 4.88574 26.4104 7.58952 26.4104 12.1181C26.4104 16.7816 28.6994 19.3503 32.8558 19.3503C35.4375 19.3503 36.8224 18.5165 38.2204 17.1714L38.4063 16.9925L36.6221 15.4847L36.4588 15.6415C35.3197 16.7381 34.3918 17.1265 32.9136 17.1265C30.4522 17.1265 29.058 15.6203 28.9827 12.8827H38.5521V11.7292ZM28.9931 10.9089C29.045 10.0241 29.1114 9.62797 29.3925 8.96313C29.9092 7.78544 31.0926 7.054 32.4811 7.054C33.8693 7.054 35.0526 7.78492 35.569 8.96116C35.8508 9.62797 35.9171 10.0241 35.9692 10.9089H28.9931Z" fill="#808080"/>
<path d="M2.09317 8.01245C2.92296 8.01245 3.59678 7.36034 3.59678 6.55602C3.59678 5.75175 2.92296 5.09912 2.09317 5.09912C1.26533 5.09912 0.591553 5.75175 0.591553 6.55602C0.591553 7.36034 1.26533 8.01245 2.09317 8.01245Z" fill="#808080"/>
<path d="M93.463 19.281C94.2936 19.281 94.9667 18.6288 94.9667 17.825C94.9667 17.0202 94.2936 16.3672 93.463 16.3672C92.635 16.3672 91.9628 17.0202 91.9628 17.825C91.9628 18.6288 92.635 19.281 93.463 19.281Z" fill="#808080"/>
</g>
<defs>
<clipPath id="clip0_8848_83838">
<rect width="94.375" height="30" fill="white" transform="translate(0.591553 0.5)"/>
</clipPath>
</defs>
</svg>
